<svg width="1920" height="557" viewBox="0 0 1920 557" fill="none" xmlns="http://www.w3.org/2000/svg">
<path opacity="0.05" d="M0 0.0334473C0 0.0334473 137.595 66.3347 231.956 88.5334C347.337 115.677 420.774 76.4547 534.747 109.033C630.427 136.384 668.608 191.725 763.71 221.033C885.883 258.685 961.748 247.514 1089.45 253.033C1190.26 257.391 1249.99 277.727 1347.84 253.033C1436.38 230.69 1476.2 190.858 1556.35 147.033C1616.72 114.026 1641.48 72.1095 1708.99 59.0334C1748.4 51.4028 1772.42 51.0548 1811.75 59.0334C1857.37 68.2876 1920 109.033 1920 109.033V315.033C1920 315.033 1846.78 229.834 1782.32 221.033C1701.01 209.931 1666.6 276.173 1594.26 315.033C1523.2 353.214 1492.27 394.346 1415.18 418.033C1364.13 433.719 1333.19 433.859 1280 438.533C1205.87 445.048 1163.28 447.881 1089.45 438.533C1022.6 430.07 987.196 413.943 921.839 397.533C850.616 379.651 811.021 368.29 739.766 350.533C682.588 336.284 650.766 327.199 593.11 315.033C536.162 303.017 503.63 299.406 446.454 288.533C377.539 275.429 337.152 274.528 270.366 253.033C199.57 230.248 158.594 215.685 97.272 173.533C55.7102 144.965 0 88.5334 0 88.5334V0.0334473Z" fill="url(#paint0_linear_270506_7678)"/>
<path opacity="0.05" d="M0 112.033C0 112.033 137.595 178.335 231.956 200.533C347.337 227.677 420.774 188.455 534.747 221.033C630.427 248.384 668.608 303.725 763.71 333.033C885.883 370.685 961.748 359.514 1089.45 365.033C1190.26 369.391 1249.99 389.727 1347.84 365.033C1436.38 342.69 1476.2 302.858 1556.35 259.033C1616.72 226.026 1641.48 184.109 1708.99 171.033C1748.4 163.403 1772.42 163.055 1811.75 171.033C1857.37 180.288 1920 221.033 1920 221.033V427.033C1920 427.033 1846.78 341.834 1782.32 333.033C1701.01 321.931 1666.6 388.173 1594.26 427.033C1523.2 465.214 1492.27 506.346 1415.18 530.033C1364.13 545.719 1333.19 545.859 1280 550.533C1205.87 557.048 1163.28 559.881 1089.45 550.533C1022.6 542.07 987.196 525.943 921.839 509.533C850.616 491.651 811.021 480.29 739.766 462.533C682.588 448.284 650.766 439.199 593.11 427.033C536.162 415.017 503.63 411.406 446.454 400.533C377.539 387.429 337.152 386.528 270.366 365.033C199.57 342.248 158.594 327.685 97.272 285.533C55.7102 256.965 0 200.533 0 200.533V112.033Z" fill="url(#paint1_linear_270506_7678)"/>
<path opacity="0.05" d="M0 57.0334C0 57.0334 137.595 123.335 231.956 145.533C347.337 172.677 420.774 133.455 534.747 166.033C630.427 193.384 668.608 248.725 763.71 278.033C885.883 315.685 961.748 304.514 1089.45 310.033C1190.26 314.391 1249.99 334.727 1347.84 310.033C1436.38 287.69 1476.2 247.858 1556.35 204.033C1616.72 171.026 1641.48 129.109 1708.99 116.033C1748.4 108.403 1772.42 108.055 1811.75 116.033C1857.37 125.288 1920 166.033 1920 166.033V372.033C1920 372.033 1846.78 286.834 1782.32 278.033C1701.01 266.931 1666.6 333.173 1594.26 372.033C1523.2 410.214 1492.27 451.346 1415.18 475.033C1364.13 490.719 1333.19 490.859 1280 495.533C1205.87 502.048 1163.28 504.881 1089.45 495.533C1022.6 487.07 987.196 470.943 921.839 454.533C850.616 436.651 811.021 425.29 739.766 407.533C682.588 393.284 650.766 384.199 593.11 372.033C536.162 360.017 503.63 356.406 446.454 345.533C377.539 332.429 337.152 331.528 270.366 310.033C199.57 287.248 158.594 272.685 97.272 230.533C55.7102 201.965 0 145.533 0 145.533V57.0334Z" fill="url(#paint2_linear_270506_7678)"/>
<defs>
<linearGradient id="paint0_linear_270506_7678" x1="1920" y1="0.0333237" x2="0" y2="0.0334414" gradientUnits="userSpaceOnUse">
<stop stop-color="#E51D37"/>
<stop offset="1" stop-color="#E51D37" stop-opacity="0.25"/>
</linearGradient>
<linearGradient id="paint1_linear_270506_7678" x1="1920" y1="112.033" x2="0" y2="112.033" gradientUnits="userSpaceOnUse">
<stop stop-color="#E51D37"/>
<stop offset="1" stop-color="#E51D37" stop-opacity="0.25"/>
</linearGradient>
<linearGradient id="paint2_linear_270506_7678" x1="1916" y1="67.0334" x2="4.45696e-10" y2="57.0334" gradientUnits="userSpaceOnUse">
<stop stop-color="#E51D37"/>
<stop offset="1" stop-color="#E51D37" stop-opacity="0.25"/>
</linearGradient>
</defs>
</svg>
