<svg width="152" height="55" viewBox="0 0 152 55" fill="none" xmlns="http://www.w3.org/2000/svg">
<rect y="0.608398" width="151.5" height="54" rx="5" fill="#333333"/>
<path d="M37.5567 16.124C37.8167 15.117 38.4042 14.2251 39.2268 13.5887C40.0493 12.9522 41.0601 12.6074 42.1001 12.6084H42.2173C42.4659 12.6084 42.7044 12.7072 42.8802 12.883C43.056 13.0588 43.1548 13.2973 43.1548 13.5459C43.1548 13.7945 43.056 14.033 42.8802 14.2088C42.7044 14.3846 42.4659 14.4834 42.2173 14.4834H42.1001C41.4765 14.4833 40.8706 14.6905 40.3776 15.0723C39.8847 15.4542 39.5325 15.989 39.3767 16.5928C39.3145 16.8336 39.1592 17.04 38.9449 17.1663C38.7306 17.2927 38.475 17.3288 38.2341 17.2666C37.9932 17.2044 37.7869 17.0491 37.6605 16.8349C37.5342 16.6206 37.4981 16.3649 37.5603 16.124H37.5567ZM48.6978 32.4822C48.6274 32.3216 48.5138 32.1836 48.3696 32.0838C46.381 30.7174 45.9673 28.3865 45.9673 26.6709C45.9673 24.6002 47.5458 22.7967 48.4868 21.9049C48.5794 21.8173 48.6531 21.7117 48.7035 21.5946C48.7539 21.4776 48.7798 21.3515 48.7798 21.224C48.7798 21.0966 48.7539 20.9705 48.7035 20.8534C48.6531 20.7363 48.5794 20.6308 48.4868 20.5432C47.0009 19.1404 44.5399 18.2334 42.2173 18.2334C40.5488 18.2349 38.918 18.7294 37.5298 19.6549C35.9104 18.569 33.9632 18.0813 32.0232 18.2757C30.0831 18.4701 28.2714 19.3345 26.8997 20.7201C26.0797 21.5573 25.4362 22.5507 25.0077 23.6414C24.5791 24.7321 24.3741 25.8979 24.4048 27.0693C24.4508 29.0467 24.8905 30.995 25.6981 32.8005C26.5058 34.606 27.6652 36.2324 29.1087 37.5846C29.978 38.4059 31.1296 38.8619 32.3255 38.8584H42.6005C43.2398 38.8596 43.8726 38.7295 44.4596 38.4761C45.0466 38.2227 45.5754 37.8515 46.013 37.3853C46.8237 36.5129 47.525 35.5448 48.1013 34.5025C48.9239 32.999 48.8185 32.7646 48.6978 32.4822Z" fill="white"/>
<path d="M62.4958 15.4599H64.1863C65.2363 15.4599 66.0343 15.7574 66.5803 16.3524C67.1333 16.9474 67.4098 17.7909 67.4098 18.8829C67.4098 19.9749 67.1333 20.8289 66.5803 21.4449C66.0343 22.0539 65.2468 22.3584 64.2178 22.3584H62.4958V15.4599ZM64.1233 21.7179C64.9493 21.7179 65.5688 21.4729 65.9818 20.9829C66.4018 20.4859 66.6118 19.7859 66.6118 18.8829C66.6118 17.9939 66.4018 17.3079 65.9818 16.8249C65.5688 16.3419 64.9493 16.1004 64.1233 16.1004H63.2728V21.7179H64.1233Z" fill="white"/>
<path d="M70.8042 22.4844C70.3842 22.4844 69.9957 22.3794 69.6387 22.1694C69.2817 21.9524 68.9947 21.6444 68.7777 21.2454C68.5677 20.8394 68.4627 20.3634 68.4627 19.8174C68.4627 19.2714 68.5677 18.7954 68.7777 18.3894C68.9947 17.9834 69.2817 17.6754 69.6387 17.4654C69.9957 17.2484 70.3842 17.1399 70.8042 17.1399C71.2242 17.1399 71.6127 17.2484 71.9697 17.4654C72.3267 17.6754 72.6102 17.9834 72.8202 18.3894C73.0372 18.7954 73.1457 19.2714 73.1457 19.8174C73.1457 20.3634 73.0372 20.8394 72.8202 21.2454C72.6102 21.6444 72.3267 21.9524 71.9697 22.1694C71.6127 22.3794 71.2242 22.4844 70.8042 22.4844ZM70.8042 21.8439C71.1052 21.8439 71.3712 21.7599 71.6022 21.5919C71.8402 21.4239 72.0257 21.1859 72.1587 20.8779C72.2917 20.5699 72.3582 20.2164 72.3582 19.8174C72.3582 19.4184 72.2917 19.0649 72.1587 18.7569C72.0257 18.4489 71.8402 18.2109 71.6022 18.0429C71.3712 17.8679 71.1052 17.7804 70.8042 17.7804C70.5032 17.7804 70.2337 17.8679 69.9957 18.0429C69.7647 18.2109 69.5827 18.4489 69.4497 18.7569C69.3237 19.0649 69.2607 19.4184 69.2607 19.8174C69.2607 20.4264 69.4042 20.9164 69.6912 21.2874C69.9782 21.6584 70.3492 21.8439 70.8042 21.8439Z" fill="white"/>
<path d="M73.8609 17.2659H74.6484L75.4464 20.3004L75.5409 20.7519C75.6389 21.1719 75.7089 21.4904 75.7509 21.7074H75.7929C75.9259 21.1614 76.0449 20.6924 76.1499 20.3004L76.9689 17.2659H77.7354L78.5649 20.3004L78.9219 21.7074H78.9639L79.2999 20.3004L80.0769 17.2659H80.8119L79.4259 22.3584H78.4809L77.7039 19.5129L77.5044 18.6834C77.4904 18.6274 77.4414 18.4174 77.3574 18.0534H77.3154C77.1614 18.7464 77.0389 19.2399 76.9479 19.5339L76.1919 22.3584H75.2994L73.8609 17.2659Z" fill="white"/>
<path d="M81.956 17.2659H82.586L82.649 18.0219H82.6805C82.9605 17.7419 83.2335 17.5249 83.4995 17.3709C83.7725 17.2169 84.07 17.1399 84.392 17.1399C84.924 17.1399 85.316 17.3079 85.568 17.6439C85.82 17.9729 85.946 18.4664 85.946 19.1244V22.3584H85.1795V19.2189C85.1795 18.7289 85.099 18.3719 84.938 18.1479C84.784 17.9239 84.5285 17.8119 84.1715 17.8119C83.9195 17.8119 83.685 17.8784 83.468 18.0114C83.251 18.1374 82.999 18.3439 82.712 18.6309V22.3584H81.956V17.2659Z" fill="white"/>
<path d="M88.4866 22.4844C88.1996 22.4844 87.9896 22.3969 87.8566 22.2219C87.7236 22.0399 87.6571 21.7739 87.6571 21.4239V14.8614H88.4131V21.4869C88.4131 21.6059 88.4341 21.6969 88.4761 21.7599C88.5251 21.8159 88.5846 21.8439 88.6546 21.8439C88.7106 21.8439 88.7736 21.8369 88.8436 21.8229L88.9486 22.4109C88.8156 22.4599 88.6616 22.4844 88.4866 22.4844Z" fill="white"/>
<path d="M92.2246 22.4844C91.8046 22.4844 91.4161 22.3794 91.0591 22.1694C90.7021 21.9524 90.4151 21.6444 90.1981 21.2454C89.9881 20.8394 89.8831 20.3634 89.8831 19.8174C89.8831 19.2714 89.9881 18.7954 90.1981 18.3894C90.4151 17.9834 90.7021 17.6754 91.0591 17.4654C91.4161 17.2484 91.8046 17.1399 92.2246 17.1399C92.6446 17.1399 93.0331 17.2484 93.3901 17.4654C93.7471 17.6754 94.0306 17.9834 94.2406 18.3894C94.4576 18.7954 94.5661 19.2714 94.5661 19.8174C94.5661 20.3634 94.4576 20.8394 94.2406 21.2454C94.0306 21.6444 93.7471 21.9524 93.3901 22.1694C93.0331 22.3794 92.6446 22.4844 92.2246 22.4844ZM92.2246 21.8439C92.5256 21.8439 92.7916 21.7599 93.0226 21.5919C93.2606 21.4239 93.4461 21.1859 93.5791 20.8779C93.7121 20.5699 93.7786 20.2164 93.7786 19.8174C93.7786 19.4184 93.7121 19.0649 93.5791 18.7569C93.4461 18.4489 93.2606 18.2109 93.0226 18.0429C92.7916 17.8679 92.5256 17.7804 92.2246 17.7804C91.9236 17.7804 91.6541 17.8679 91.4161 18.0429C91.1851 18.2109 91.0031 18.4489 90.8701 18.7569C90.7441 19.0649 90.6811 19.4184 90.6811 19.8174C90.6811 20.4264 90.8246 20.9164 91.1116 21.2874C91.3986 21.6584 91.7696 21.8439 92.2246 21.8439Z" fill="white"/>
<path d="M96.964 22.4844C96.53 22.4844 96.173 22.3584 95.893 22.1064C95.613 21.8544 95.473 21.5009 95.473 21.0459C95.473 20.4929 95.725 20.0694 96.229 19.7754C96.733 19.4744 97.538 19.2644 98.644 19.1454C98.644 18.7464 98.56 18.4209 98.392 18.1689C98.231 17.9099 97.951 17.7804 97.552 17.7804C97.069 17.7804 96.5545 17.9659 96.0085 18.3369L95.704 17.8119C96.376 17.3639 97.034 17.1399 97.678 17.1399C98.266 17.1399 98.7 17.3254 98.98 17.6964C99.26 18.0604 99.4 18.5644 99.4 19.2084V22.3584H98.77L98.707 21.7389H98.6755C98.0735 22.2359 97.503 22.4844 96.964 22.4844ZM97.1635 21.8649C97.4085 21.8649 97.6465 21.8089 97.8775 21.6969C98.1155 21.5779 98.371 21.3959 98.644 21.1509V19.6599C97.769 19.7649 97.146 19.9259 96.775 20.1429C96.411 20.3599 96.229 20.6469 96.229 21.0039C96.229 21.2909 96.3165 21.5079 96.4915 21.6549C96.6665 21.7949 96.8905 21.8649 97.1635 21.8649Z" fill="white"/>
<path d="M102.781 22.4844C102.137 22.4844 101.626 22.2499 101.248 21.7809C100.877 21.3119 100.691 20.6574 100.691 19.8174C100.691 19.2854 100.793 18.8164 100.996 18.4104C101.199 18.0044 101.468 17.6929 101.804 17.4759C102.147 17.2519 102.515 17.1399 102.907 17.1399C103.18 17.1399 103.425 17.1889 103.642 17.2869C103.859 17.3849 104.097 17.5354 104.356 17.7384L104.324 16.8564V14.8614H105.08V22.3584H104.45L104.387 21.7389H104.356C104.139 21.9629 103.894 22.1449 103.621 22.2849C103.355 22.4179 103.075 22.4844 102.781 22.4844ZM102.949 21.8334C103.194 21.8334 103.425 21.7739 103.642 21.6549C103.866 21.5359 104.093 21.3539 104.324 21.1089V18.3474C104.1 18.1514 103.883 18.0114 103.673 17.9274C103.463 17.8364 103.246 17.7909 103.022 17.7909C102.735 17.7909 102.473 17.8784 102.235 18.0534C102.004 18.2284 101.818 18.4699 101.678 18.7779C101.545 19.0859 101.479 19.4324 101.479 19.8174C101.479 20.4474 101.605 20.9409 101.857 21.2979C102.116 21.6549 102.48 21.8334 102.949 21.8334Z" fill="white"/>
<path d="M108.198 17.2659H108.986L109.994 20.2374L110.477 21.7284H110.519L111.002 20.2374L112.01 17.2659H112.766L110.939 22.3584H110.057L108.198 17.2659Z" fill="white"/>
<path d="M113.784 17.2659H114.54V22.3584H113.784V17.2659ZM114.173 16.1739C114.019 16.1739 113.893 16.1249 113.795 16.0269C113.697 15.9289 113.648 15.7994 113.648 15.6384C113.648 15.4844 113.697 15.3619 113.795 15.2709C113.893 15.1729 114.019 15.1239 114.173 15.1239C114.327 15.1239 114.453 15.1729 114.551 15.2709C114.649 15.3619 114.698 15.4844 114.698 15.6384C114.698 15.7994 114.649 15.9289 114.551 16.0269C114.453 16.1249 114.327 16.1739 114.173 16.1739Z" fill="white"/>
<path d="M117.482 22.4844C117.048 22.4844 116.691 22.3584 116.411 22.1064C116.131 21.8544 115.991 21.5009 115.991 21.0459C115.991 20.4929 116.243 20.0694 116.747 19.7754C117.251 19.4744 118.056 19.2644 119.162 19.1454C119.162 18.7464 119.078 18.4209 118.91 18.1689C118.749 17.9099 118.469 17.7804 118.07 17.7804C117.587 17.7804 117.073 17.9659 116.527 18.3369L116.222 17.8119C116.894 17.3639 117.552 17.1399 118.196 17.1399C118.784 17.1399 119.218 17.3254 119.498 17.6964C119.778 18.0604 119.918 18.5644 119.918 19.2084V22.3584H119.288L119.225 21.7389H119.194C118.592 22.2359 118.021 22.4844 117.482 22.4844ZM117.682 21.8649C117.927 21.8649 118.165 21.8089 118.396 21.6969C118.634 21.5779 118.889 21.3959 119.162 21.1509V19.6599C118.287 19.7649 117.664 19.9259 117.293 20.1429C116.929 20.3599 116.747 20.6469 116.747 21.0039C116.747 21.2909 116.835 21.5079 117.01 21.6549C117.185 21.7949 117.409 21.8649 117.682 21.8649Z" fill="white"/>
<path d="M66.7138 37.4079H63.9463L63.3523 39.6084H61.4623L64.2703 30.7929H66.4708L69.2653 39.6084H67.3078L66.7138 37.4079ZM66.3358 35.9769L66.0928 35.0724C65.9848 34.6764 65.8228 34.0554 65.6068 33.2094L65.3503 32.2104H65.2963C65.0263 33.3714 64.7878 34.3254 64.5808 35.0724L64.3378 35.9769H66.3358Z" fill="white"/>
<path d="M70.1206 32.9259H71.6191L71.7541 33.6009H71.8081C72.0871 33.3489 72.3931 33.1464 72.7261 32.9934C73.0681 32.8404 73.4056 32.7639 73.7386 32.7639C74.5486 32.7639 75.1876 33.0699 75.6556 33.6819C76.1236 34.2939 76.3576 35.1219 76.3576 36.1659C76.3576 36.8949 76.2271 37.5339 75.9661 38.0829C75.7051 38.6319 75.3586 39.0504 74.9266 39.3384C74.4946 39.6264 74.0311 39.7704 73.5361 39.7704C72.9691 39.7704 72.4246 39.5319 71.9026 39.0549L71.9566 40.1349V42.1464H70.1206V32.9259ZM73.1176 38.2584C73.5136 38.2584 73.8376 38.0829 74.0896 37.7319C74.3416 37.3809 74.4676 36.8634 74.4676 36.1794C74.4676 34.9104 74.0491 34.2759 73.2121 34.2759C72.7981 34.2759 72.3796 34.4919 71.9566 34.9239V37.7859C72.3166 38.1009 72.7036 38.2584 73.1176 38.2584Z" fill="white"/>
<path d="M77.8199 32.9259H79.3184L79.4534 33.6009H79.5074C79.7864 33.3489 80.0924 33.1464 80.4254 32.9934C80.7673 32.8404 81.1049 32.7639 81.4379 32.7639C82.2479 32.7639 82.8869 33.0699 83.3549 33.6819C83.8229 34.2939 84.0569 35.1219 84.0569 36.1659C84.0569 36.8949 83.9263 37.5339 83.6653 38.0829C83.4044 38.6319 83.0579 39.0504 82.6259 39.3384C82.1939 39.6264 81.7304 39.7704 81.2354 39.7704C80.6684 39.7704 80.1238 39.5319 79.6018 39.0549L79.6558 40.1349V42.1464H77.8199V32.9259ZM80.8169 38.2584C81.2129 38.2584 81.5368 38.0829 81.7888 37.7319C82.0409 37.3809 82.1668 36.8634 82.1668 36.1794C82.1668 34.9104 81.7484 34.2759 80.9114 34.2759C80.4974 34.2759 80.0788 34.4919 79.6558 34.9239V37.7859C80.0159 38.1009 80.4029 38.2584 80.8169 38.2584Z" fill="white"/>
<path d="M87.2336 39.7704C86.6306 39.7704 86.1941 39.5859 85.9241 39.2169C85.6541 38.8479 85.5191 38.3259 85.5191 37.6509V30.1179H87.3551V37.7319C87.3551 37.9209 87.3911 38.0604 87.4631 38.1504C87.5351 38.2314 87.6161 38.2719 87.7061 38.2719C87.7961 38.2719 87.8771 38.2629 87.9491 38.2449L88.1786 39.6219C87.9176 39.7209 87.6026 39.7704 87.2336 39.7704Z" fill="white"/>
<path d="M94.8509 35.9634C94.8509 36.3054 94.8239 36.5844 94.7699 36.8004H90.6389C90.7289 37.3314 90.9449 37.7229 91.2869 37.9749C91.6379 38.2269 92.0429 38.3529 92.5019 38.3529C92.9789 38.3529 93.4739 38.2044 93.9869 37.9074L94.5944 39.0279C94.2614 39.2619 93.8879 39.4464 93.4739 39.5814C93.0689 39.7074 92.6639 39.7704 92.2589 39.7704C91.6289 39.7704 91.0574 39.6309 90.5444 39.3519C90.0404 39.0729 89.6399 38.6679 89.3429 38.1369C89.0549 37.6059 88.9109 36.9849 88.9109 36.2739C88.9109 35.5719 89.0549 34.9554 89.3429 34.4244C89.6399 33.8934 90.0269 33.4839 90.5039 33.1959C90.9809 32.9079 91.4894 32.7639 92.0294 32.7639C92.9384 32.7639 93.6359 33.0609 94.1219 33.6549C94.6079 34.2399 94.8509 35.0094 94.8509 35.9634ZM93.2714 35.5719C93.2714 35.1399 93.1724 34.8024 92.9744 34.5594C92.7764 34.3074 92.4749 34.1814 92.0699 34.1814C91.7369 34.1814 91.4399 34.2984 91.1789 34.5324C90.9269 34.7574 90.7559 35.1039 90.6659 35.5719H93.2714Z" fill="white"/>
<path d="M101.761 39.7704C101.167 39.7704 100.587 39.6624 100.02 39.4464C99.4527 39.2214 98.9532 38.9019 98.5211 38.4879L99.5876 37.2189C99.9117 37.5069 100.267 37.7364 100.654 37.9074C101.05 38.0784 101.433 38.1639 101.802 38.1639C102.234 38.1639 102.562 38.0829 102.787 37.9209C103.021 37.7499 103.138 37.5159 103.138 37.2189C103.138 37.0299 103.084 36.8724 102.976 36.7464C102.877 36.6204 102.747 36.5169 102.585 36.4359C102.432 36.3549 102.18 36.2424 101.829 36.0984L100.668 35.5989C100.146 35.3829 99.7182 35.0814 99.3852 34.6944C99.0522 34.2984 98.8857 33.8034 98.8857 33.2094C98.8857 32.7324 99.0162 32.3004 99.2771 31.9134C99.5471 31.5174 99.9162 31.2069 100.384 30.9819C100.852 30.7479 101.379 30.6309 101.964 30.6309C102.477 30.6309 102.981 30.7344 103.476 30.9414C103.971 31.1394 104.398 31.4184 104.758 31.7784L103.827 32.9529C103.521 32.7099 103.219 32.5299 102.922 32.4129C102.625 32.2959 102.306 32.2374 101.964 32.2374C101.595 32.2374 101.302 32.3139 101.086 32.4669C100.87 32.6199 100.762 32.8314 100.762 33.1014C100.762 33.2904 100.816 33.4479 100.924 33.5739C101.041 33.6999 101.181 33.8034 101.343 33.8844C101.514 33.9654 101.775 34.0779 102.126 34.2219L103.26 34.6809C103.827 34.9149 104.263 35.2254 104.569 35.6124C104.875 35.9904 105.028 36.4764 105.028 37.0704C105.028 37.5654 104.898 38.0199 104.637 38.4339C104.376 38.8389 103.998 39.1629 103.503 39.4059C103.008 39.6489 102.427 39.7704 101.761 39.7704Z" fill="white"/>
<path d="M108.517 39.7704C107.743 39.7704 107.176 39.5499 106.816 39.1089C106.456 38.6589 106.276 38.0334 106.276 37.2324V34.3839H105.345V33.0069L106.371 32.9259L106.587 31.1439H108.112V32.9259H109.746V34.3839H108.112V37.2189C108.112 37.9479 108.409 38.3124 109.003 38.3124C109.192 38.3124 109.413 38.2674 109.665 38.1774L109.962 39.5274C109.476 39.6894 108.994 39.7704 108.517 39.7704Z" fill="white"/>
<path d="M113.679 39.7704C113.103 39.7704 112.568 39.6309 112.073 39.3519C111.587 39.0729 111.195 38.6679 110.898 38.1369C110.601 37.6059 110.453 36.9849 110.453 36.2739C110.453 35.5539 110.601 34.9284 110.898 34.3974C111.195 33.8664 111.587 33.4614 112.073 33.1824C112.568 32.9034 113.103 32.7639 113.679 32.7639C114.246 32.7639 114.777 32.9034 115.272 33.1824C115.767 33.4614 116.163 33.8709 116.46 34.4109C116.757 34.9419 116.906 35.5629 116.906 36.2739C116.906 36.9849 116.757 37.6059 116.46 38.1369C116.163 38.6679 115.767 39.0729 115.272 39.3519C114.777 39.6309 114.246 39.7704 113.679 39.7704ZM113.679 38.2719C114.102 38.2719 114.431 38.0964 114.665 37.7454C114.899 37.3854 115.016 36.8949 115.016 36.2739C115.016 35.6529 114.899 35.1624 114.665 34.8024C114.431 34.4424 114.102 34.2624 113.679 34.2624C113.247 34.2624 112.914 34.4424 112.68 34.8024C112.455 35.1624 112.343 35.6529 112.343 36.2739C112.343 36.8949 112.455 37.3854 112.68 37.7454C112.914 38.0964 113.247 38.2719 113.679 38.2719Z" fill="white"/>
<path d="M118.32 32.9259H119.818L119.953 34.1004H120.007C120.241 33.6684 120.525 33.3399 120.858 33.1149C121.2 32.8809 121.546 32.7639 121.897 32.7639C122.212 32.7639 122.473 32.8089 122.68 32.8989L122.37 34.4919C122.343 34.4829 122.262 34.4649 122.127 34.4379C121.992 34.4019 121.839 34.3839 121.668 34.3839C121.38 34.3839 121.101 34.4874 120.831 34.6944C120.561 34.9014 120.336 35.2254 120.156 35.6664V39.6084H118.32V32.9259Z" fill="white"/>
<path d="M128.97 35.9634C128.97 36.3054 128.943 36.5844 128.889 36.8004H124.758C124.848 37.3314 125.064 37.7229 125.406 37.9749C125.757 38.2269 126.162 38.3529 126.621 38.3529C127.098 38.3529 127.593 38.2044 128.106 37.9074L128.714 39.0279C128.381 39.2619 128.007 39.4464 127.593 39.5814C127.188 39.7074 126.783 39.7704 126.378 39.7704C125.748 39.7704 125.177 39.6309 124.664 39.3519C124.16 39.0729 123.759 38.6679 123.462 38.1369C123.174 37.6059 123.03 36.9849 123.03 36.2739C123.03 35.5719 123.174 34.9554 123.462 34.4244C123.759 33.8934 124.146 33.4839 124.623 33.1959C125.1 32.9079 125.609 32.7639 126.149 32.7639C127.058 32.7639 127.755 33.0609 128.241 33.6549C128.727 34.2399 128.97 35.0094 128.97 35.9634ZM127.391 35.5719C127.391 35.1399 127.292 34.8024 127.094 34.5594C126.896 34.3074 126.594 34.1814 126.189 34.1814C125.856 34.1814 125.559 34.2984 125.298 34.5324C125.046 34.7574 124.875 35.1039 124.785 35.5719H127.391Z" fill="white"/>
</svg>
