<svg width="329" height="196" viewBox="0 0 329 196" fill="none" xmlns="http://www.w3.org/2000/svg">
<rect width="186.197" height="108.763" rx="10" transform="matrix(0.944817 0.327599 -0.525072 0.851058 152.137 41.9807)" fill="url(#paint0_linear_270506_8213)"/>
<mask id="mask0_270506_8213" style="mask-type:alpha" maskUnits="userSpaceOnUse" x="95" y="41" width="233" height="155">
<rect width="186" height="108.763" transform="matrix(0.944817 0.327599 -0.525072 0.851058 152.137 41.9807)" fill="#ED713C"/>
</mask>
<g mask="url(#mask0_270506_8213)">
<path opacity="0.1" d="M178.246 168.894C174.478 175.002 161.374 183.089 131.807 184.698C104.067 186.207 68.6132 181.291 32.6797 168.832C-3.25387 156.373 -31.2094 139.303 -47.6384 122.478C-65.1491 104.546 -65.4141 91.8234 -61.646 85.7158C-57.8778 79.6082 -44.7734 71.5208 -15.2069 69.9121C12.5332 68.4027 47.9873 73.3189 83.9208 85.7782C119.854 98.2376 147.81 115.308 164.239 132.132C181.75 150.064 182.015 162.787 178.246 168.894Z" fill="#333333" stroke="#333333" stroke-width="36"/>
<path opacity="0.1" d="M502.099 147.141C495.381 158.029 478.324 167.971 449.023 171.432C420.467 174.805 384.718 171.202 349.238 158.901C313.759 146.599 286.947 128.509 271.885 110.012C256.429 91.0326 255.489 74.8502 262.206 63.9625C268.924 53.0748 285.981 43.1329 315.282 39.6717C343.838 36.2986 379.587 39.9012 415.067 52.203C450.546 64.5049 477.358 82.5942 492.42 101.091C507.876 120.071 508.816 136.253 502.099 147.141Z" fill="#333333" stroke="#333333" stroke-width="36"/>
</g>
<path d="M246.415 171.478C246.098 171.366 245.873 171.196 245.74 170.968C245.607 170.74 245.569 170.462 245.626 170.134C245.683 169.806 245.837 169.44 246.086 169.037C246.334 168.634 246.606 168.311 246.901 168.067C247.198 167.824 247.506 167.666 247.824 167.594C248.143 167.523 248.46 167.542 248.776 167.651C249.091 167.761 249.315 167.93 249.447 168.159C249.58 168.387 249.618 168.665 249.562 168.992C249.507 169.318 249.356 169.682 249.107 170.084C248.858 170.489 248.584 170.814 248.288 171.06C247.993 171.303 247.686 171.462 247.367 171.535C247.049 171.606 246.732 171.587 246.415 171.478ZM246.714 170.993C246.993 171.09 247.287 171.043 247.595 170.852C247.905 170.662 248.203 170.334 248.489 169.87C248.68 169.562 248.804 169.289 248.863 169.051C248.924 168.812 248.921 168.615 248.855 168.458C248.79 168.301 248.666 168.19 248.482 168.127C248.205 168.03 247.911 168.078 247.6 168.27C247.289 168.461 246.991 168.788 246.704 169.251C246.513 169.56 246.387 169.835 246.326 170.073C246.267 170.311 246.27 170.508 246.335 170.664C246.401 170.819 246.527 170.929 246.714 170.993ZM248.705 172.197L252.483 169.615L252.5 169.588L250.418 168.866L250.715 168.385L253.44 169.331L253.134 169.827L249.355 172.422L248.705 172.197ZM255.826 169.946L251.754 173.932L251.217 173.746L255.289 169.76L255.826 169.946ZM253.931 174.009L254.181 173.603L256.38 172.784C256.616 172.694 256.815 172.613 256.977 172.54C257.142 172.467 257.278 172.39 257.386 172.31C257.494 172.23 257.581 172.136 257.649 172.027C257.725 171.903 257.758 171.786 257.749 171.674C257.74 171.561 257.695 171.461 257.614 171.374C257.533 171.286 257.423 171.218 257.283 171.169C257.136 171.118 256.99 171.101 256.846 171.117C256.703 171.133 256.571 171.181 256.451 171.259C256.33 171.338 256.229 171.444 256.147 171.577L255.553 171.371C255.693 171.145 255.873 170.967 256.092 170.838C256.312 170.709 256.551 170.632 256.81 170.609C257.07 170.585 257.328 170.617 257.584 170.706C257.843 170.795 258.042 170.921 258.182 171.083C258.324 171.243 258.402 171.423 258.415 171.621C258.428 171.818 258.374 172.016 258.251 172.216C258.165 172.353 258.053 172.478 257.914 172.59C257.777 172.702 257.588 172.815 257.347 172.928C257.107 173.04 256.79 173.167 256.397 173.31L255.102 173.798L255.085 173.826L256.941 174.469L256.644 174.95L253.931 174.009ZM258.815 175.764C258.633 175.698 258.47 175.605 258.328 175.485C258.186 175.365 258.085 175.213 258.024 175.027C257.962 174.842 257.958 174.619 258.012 174.361C258.067 174.102 258.2 173.802 258.411 173.46C258.611 173.136 258.824 172.861 259.051 172.634C259.278 172.408 259.513 172.232 259.755 172.106C259.998 171.979 260.244 171.903 260.492 171.879C260.739 171.855 260.983 171.884 261.222 171.967C261.467 172.052 261.658 172.171 261.795 172.324C261.932 172.477 262.012 172.651 262.036 172.846C262.06 173.041 262.028 173.242 261.94 173.449L261.326 173.236C261.38 173.067 261.375 172.912 261.312 172.771C261.249 172.63 261.118 172.525 260.92 172.456C260.618 172.352 260.309 172.389 259.994 172.567C259.68 172.746 259.392 173.046 259.13 173.467L259.16 173.478C259.297 173.397 259.439 173.338 259.588 173.3C259.739 173.261 259.891 173.244 260.044 173.249C260.2 173.253 260.349 173.28 260.493 173.33C260.732 173.413 260.916 173.54 261.044 173.713C261.174 173.884 261.241 174.082 261.243 174.305C261.245 174.529 261.173 174.759 261.026 174.996C260.88 175.233 260.688 175.427 260.45 175.578C260.213 175.729 259.953 175.824 259.669 175.862C259.386 175.899 259.101 175.866 258.815 175.764ZM259.104 175.292C259.263 175.347 259.426 175.361 259.594 175.334C259.762 175.307 259.919 175.247 260.064 175.154C260.21 175.06 260.328 174.941 260.418 174.794C260.506 174.652 260.551 174.509 260.552 174.367C260.554 174.226 260.515 174.099 260.434 173.988C260.355 173.876 260.236 173.794 260.079 173.739C259.96 173.698 259.837 173.68 259.709 173.686C259.583 173.692 259.46 173.718 259.338 173.764C259.217 173.81 259.105 173.872 259.003 173.951C258.902 174.029 258.82 174.121 258.756 174.225C258.67 174.364 258.626 174.505 258.624 174.648C258.624 174.791 258.663 174.921 258.743 175.037C258.826 175.152 258.946 175.237 259.104 175.292Z" fill="white"/>
<path d="M141.939 134.144L142.141 133.818L144.329 132.948C144.586 132.846 144.802 132.755 144.977 132.675C145.152 132.594 145.297 132.51 145.41 132.425C145.525 132.338 145.618 132.238 145.688 132.125C145.768 131.994 145.803 131.869 145.792 131.749C145.783 131.63 145.734 131.524 145.647 131.43C145.56 131.337 145.441 131.264 145.292 131.213C145.134 131.158 144.977 131.14 144.823 131.158C144.67 131.175 144.529 131.226 144.4 131.308C144.272 131.392 144.164 131.504 144.077 131.646L143.602 131.481C143.736 131.263 143.91 131.092 144.123 130.966C144.336 130.84 144.566 130.764 144.815 130.739C145.065 130.714 145.31 130.743 145.55 130.827C145.792 130.91 145.977 131.031 146.107 131.187C146.237 131.344 146.307 131.518 146.317 131.711C146.327 131.904 146.273 132.096 146.155 132.287C146.07 132.423 145.961 132.547 145.825 132.659C145.691 132.77 145.508 132.881 145.276 132.994C145.045 133.107 144.741 133.236 144.364 133.383L142.888 133.954L142.87 133.983L144.786 134.647L144.54 135.046L141.939 134.144ZM145.656 134.509L145.884 134.139L149.289 132.185L149.587 132.288L149.234 132.861L149.032 132.791L146.46 134.268L146.442 134.297L148.882 135.143L148.636 135.542L145.656 134.509ZM147.127 135.943L147.666 135.069L147.772 134.897L149.418 132.23L149.893 132.394L147.602 136.108L147.127 135.943ZM150.258 137.09C150.09 137.029 149.939 136.942 149.804 136.827C149.669 136.713 149.573 136.566 149.515 136.386C149.457 136.204 149.456 135.986 149.511 135.731C149.566 135.474 149.7 135.174 149.912 134.831C150.115 134.502 150.329 134.223 150.554 133.992C150.78 133.761 151.011 133.581 151.249 133.452C151.487 133.322 151.726 133.243 151.966 133.216C152.207 133.19 152.444 133.217 152.676 133.297C152.907 133.378 153.086 133.49 153.215 133.636C153.345 133.781 153.422 133.947 153.445 134.134C153.468 134.321 153.437 134.517 153.352 134.721L152.861 134.55C152.918 134.368 152.915 134.199 152.851 134.043C152.788 133.887 152.647 133.772 152.43 133.696C152.11 133.586 151.782 133.624 151.443 133.81C151.106 133.997 150.798 134.316 150.518 134.768L150.55 134.779C150.688 134.702 150.832 134.646 150.98 134.609C151.13 134.572 151.28 134.555 151.431 134.559C151.582 134.562 151.728 134.589 151.869 134.638C152.105 134.72 152.288 134.848 152.418 135.022C152.55 135.195 152.617 135.395 152.62 135.622C152.624 135.848 152.552 136.081 152.404 136.32C152.263 136.55 152.076 136.741 151.844 136.892C151.613 137.042 151.359 137.138 151.083 137.178C150.809 137.219 150.534 137.189 150.258 137.09ZM150.504 136.691C150.673 136.75 150.848 136.765 151.029 136.735C151.212 136.706 151.382 136.641 151.538 136.54C151.697 136.439 151.824 136.31 151.921 136.153C152.016 135.999 152.064 135.846 152.065 135.694C152.068 135.541 152.026 135.404 151.94 135.283C151.854 135.163 151.727 135.073 151.558 135.014C151.431 134.97 151.298 134.952 151.159 134.96C151.022 134.966 150.887 134.994 150.755 135.044C150.625 135.094 150.505 135.162 150.395 135.247C150.286 135.331 150.198 135.429 150.129 135.54C150.038 135.688 149.991 135.839 149.989 135.993C149.988 136.149 150.03 136.289 150.116 136.414C150.203 136.539 150.332 136.632 150.504 136.691ZM153.747 138.3C153.47 138.204 153.253 138.076 153.096 137.914C152.94 137.751 152.852 137.572 152.83 137.375C152.809 137.177 152.861 136.977 152.986 136.777C153.081 136.62 153.205 136.486 153.357 136.378C153.509 136.268 153.674 136.189 153.85 136.141C154.028 136.093 154.199 136.083 154.365 136.111L154.378 136.089C154.209 135.975 154.114 135.82 154.092 135.626C154.07 135.431 154.121 135.235 154.244 135.039C154.359 134.85 154.516 134.699 154.715 134.588C154.914 134.476 155.134 134.41 155.375 134.39C155.617 134.369 155.859 134.401 156.101 134.485C156.34 134.568 156.527 134.685 156.662 134.836C156.796 134.987 156.872 135.155 156.887 135.341C156.904 135.527 156.855 135.715 156.74 135.904C156.617 136.101 156.449 136.256 156.236 136.37C156.024 136.483 155.808 136.529 155.586 136.508L155.573 136.529C155.707 136.605 155.805 136.709 155.869 136.841C155.933 136.972 155.959 137.117 155.948 137.276C155.937 137.434 155.884 137.591 155.788 137.749C155.663 137.949 155.492 138.107 155.276 138.223C155.061 138.338 154.821 138.403 154.555 138.42C154.292 138.435 154.022 138.396 153.747 138.3ZM153.993 137.901C154.18 137.966 154.357 137.995 154.527 137.987C154.696 137.98 154.848 137.939 154.983 137.866C155.118 137.792 155.227 137.689 155.31 137.557C155.395 137.416 155.432 137.278 155.419 137.143C155.406 137.008 155.35 136.886 155.251 136.777C155.154 136.668 155.018 136.584 154.843 136.523C154.668 136.462 154.491 136.439 154.315 136.452C154.14 136.466 153.98 136.514 153.834 136.594C153.69 136.674 153.576 136.785 153.49 136.926C153.407 137.058 153.371 137.187 153.382 137.311C153.395 137.436 153.453 137.549 153.556 137.651C153.66 137.753 153.805 137.836 153.993 137.901ZM155.08 136.139C155.228 136.19 155.375 136.209 155.522 136.195C155.671 136.182 155.807 136.139 155.932 136.066C156.056 135.994 156.159 135.893 156.239 135.766C156.316 135.639 156.35 135.519 156.343 135.403C156.337 135.287 156.292 135.183 156.21 135.093C156.128 135.001 156.011 134.929 155.859 134.877C155.705 134.823 155.554 134.802 155.406 134.814C155.26 134.825 155.126 134.867 155.004 134.939C154.884 135.01 154.786 135.109 154.709 135.235C154.629 135.363 154.591 135.486 154.597 135.603C154.604 135.722 154.649 135.828 154.731 135.921C154.814 136.014 154.93 136.087 155.08 136.139Z" fill="white"/>
<ellipse cx="1.1822" cy="1.1822" rx="1.1822" ry="1.1822" transform="matrix(0.944817 0.327599 -0.525072 0.851058 130.942 127.98)" fill="white"/>
<ellipse cx="1.1822" cy="1.1822" rx="1.1822" ry="1.1822" transform="matrix(0.944817 0.327599 -0.525072 0.851058 119.772 124.107)" fill="white"/>
<ellipse cx="1.1822" cy="1.1822" rx="1.1822" ry="1.1822" transform="matrix(0.944817 0.327599 -0.525072 0.851058 125.357 126.044)" fill="white"/>
<ellipse cx="1.1822" cy="1.1822" rx="1.1822" ry="1.1822" transform="matrix(0.944817 0.327599 -0.525072 0.851058 114.188 122.171)" fill="white"/>
<path opacity="0.75" d="M125.148 114.578L124.31 114.288C124.377 114.116 124.405 113.953 124.393 113.8C124.381 113.647 124.337 113.506 124.263 113.377C124.189 113.247 124.086 113.133 123.956 113.035C123.827 112.938 123.675 112.859 123.499 112.798C123.183 112.688 122.855 112.661 122.516 112.718C122.178 112.775 121.852 112.917 121.536 113.144C121.222 113.372 120.941 113.685 120.695 114.085C120.446 114.488 120.308 114.853 120.28 115.18C120.254 115.507 120.322 115.786 120.485 116.014C120.648 116.243 120.886 116.412 121.199 116.52C121.373 116.58 121.551 116.616 121.732 116.629C121.916 116.64 122.098 116.625 122.277 116.586C122.456 116.546 122.626 116.481 122.788 116.39C122.953 116.299 123.102 116.18 123.233 116.034L124.069 116.326C123.874 116.554 123.649 116.748 123.394 116.908C123.142 117.067 122.87 117.186 122.578 117.265C122.288 117.343 121.991 117.378 121.686 117.37C121.38 117.361 121.076 117.305 120.773 117.2C120.297 117.035 119.936 116.787 119.689 116.454C119.443 116.121 119.33 115.726 119.35 115.271C119.372 114.817 119.545 114.327 119.871 113.799C120.197 113.271 120.584 112.854 121.033 112.55C121.482 112.244 121.955 112.054 122.453 111.98C122.951 111.904 123.438 111.949 123.912 112.113C124.204 112.214 124.452 112.346 124.658 112.51C124.866 112.672 125.027 112.861 125.139 113.076C125.253 113.289 125.312 113.523 125.316 113.777C125.321 114.029 125.265 114.296 125.148 114.578ZM125.163 118.74C124.902 118.649 124.693 118.524 124.535 118.364C124.379 118.202 124.29 118.016 124.27 117.805C124.252 117.595 124.318 117.369 124.468 117.125C124.597 116.916 124.749 116.759 124.922 116.654C125.095 116.55 125.282 116.485 125.482 116.458C125.683 116.432 125.89 116.432 126.103 116.456C126.315 116.481 126.526 116.517 126.734 116.564C126.997 116.623 127.21 116.672 127.374 116.709C127.539 116.745 127.668 116.755 127.762 116.741C127.855 116.727 127.929 116.676 127.983 116.589L127.993 116.572C128.123 116.361 128.158 116.174 128.097 116.012C128.038 115.851 127.879 115.725 127.62 115.635C127.349 115.541 127.103 115.522 126.881 115.576C126.661 115.629 126.482 115.71 126.342 115.82L125.683 115.404C125.912 115.209 126.155 115.073 126.412 114.993C126.672 114.913 126.935 114.881 127.199 114.896C127.464 114.91 127.721 114.96 127.97 115.046C128.134 115.103 128.298 115.182 128.46 115.281C128.626 115.379 128.76 115.502 128.865 115.65C128.971 115.798 129.023 115.976 129.022 116.183C129.021 116.388 128.937 116.626 128.77 116.897L127.248 119.363L126.465 119.091L126.778 118.584L126.746 118.572C126.636 118.648 126.502 118.713 126.342 118.767C126.183 118.821 126.003 118.85 125.803 118.853C125.604 118.856 125.39 118.819 125.163 118.74ZM125.696 118.22C125.918 118.297 126.132 118.323 126.338 118.299C126.546 118.275 126.73 118.214 126.891 118.115C127.055 118.015 127.182 117.892 127.272 117.745L127.568 117.267C127.523 117.282 127.453 117.287 127.356 117.281C127.263 117.274 127.159 117.261 127.046 117.241C126.933 117.22 126.823 117.198 126.717 117.177C126.612 117.154 126.523 117.135 126.452 117.121C126.286 117.084 126.125 117.065 125.97 117.062C125.817 117.06 125.678 117.085 125.552 117.137C125.429 117.189 125.328 117.279 125.249 117.408C125.138 117.587 125.128 117.747 125.218 117.89C125.309 118.031 125.468 118.141 125.696 118.22ZM128.317 119.734L130.609 116.02L131.384 116.289L131.02 116.879L131.063 116.894C131.262 116.72 131.491 116.609 131.751 116.56C132.015 116.51 132.267 116.527 132.508 116.611C132.559 116.629 132.617 116.651 132.683 116.677C132.75 116.705 132.802 116.728 132.839 116.746L132.412 117.438C132.385 117.419 132.333 117.39 132.257 117.352C132.182 117.312 132.103 117.278 132.02 117.249C131.831 117.183 131.639 117.161 131.446 117.182C131.255 117.202 131.078 117.261 130.914 117.358C130.75 117.454 130.619 117.583 130.519 117.744L129.12 120.012L128.317 119.734ZM135.678 117.778L135.32 118.358L133.068 117.577L133.426 116.997L135.678 117.778ZM134.579 116.316L135.381 116.595L133.214 120.108C133.127 120.248 133.085 120.362 133.088 120.449C133.092 120.534 133.122 120.602 133.18 120.654C133.24 120.704 133.314 120.744 133.402 120.775C133.466 120.797 133.525 120.812 133.578 120.821C133.632 120.83 133.673 120.836 133.703 120.841L133.479 121.488C133.423 121.488 133.347 121.481 133.251 121.468C133.154 121.456 133.041 121.428 132.911 121.385C132.698 121.315 132.522 121.213 132.383 121.079C132.244 120.945 132.164 120.784 132.143 120.596C132.122 120.409 132.18 120.203 132.319 119.979L134.579 116.316ZM135.423 122.297C135.162 122.207 134.953 122.081 134.795 121.921C134.639 121.759 134.551 121.573 134.53 121.363C134.512 121.153 134.578 120.926 134.728 120.683C134.858 120.473 135.009 120.316 135.182 120.212C135.355 120.108 135.542 120.042 135.742 120.016C135.943 119.99 136.15 119.989 136.363 120.014C136.576 120.039 136.786 120.075 136.994 120.121C137.257 120.181 137.47 120.23 137.634 120.267C137.799 120.302 137.928 120.313 138.022 120.299C138.115 120.284 138.189 120.233 138.243 120.146L138.253 120.129C138.383 119.918 138.418 119.732 138.357 119.57C138.298 119.408 138.139 119.283 137.88 119.193C137.609 119.099 137.363 119.079 137.141 119.133C136.921 119.186 136.742 119.268 136.602 119.378L135.943 118.962C136.172 118.767 136.415 118.63 136.672 118.551C136.932 118.471 137.195 118.439 137.459 118.454C137.724 118.468 137.981 118.518 138.23 118.604C138.395 118.661 138.558 118.739 138.72 118.838C138.886 118.937 139.02 119.06 139.125 119.208C139.231 119.356 139.283 119.534 139.282 119.74C139.281 119.946 139.197 120.184 139.03 120.454L137.509 122.921L136.725 122.649L137.038 122.141L137.006 122.13C136.896 122.205 136.762 122.27 136.602 122.325C136.443 122.379 136.263 122.408 136.064 122.411C135.864 122.414 135.651 122.376 135.423 122.297ZM135.956 121.778C136.178 121.854 136.392 121.881 136.598 121.856C136.806 121.833 136.99 121.771 137.151 121.673C137.315 121.573 137.442 121.45 137.532 121.303L137.828 120.824C137.783 120.84 137.713 120.845 137.617 120.839C137.523 120.832 137.42 120.819 137.306 120.799C137.193 120.777 137.084 120.756 136.977 120.735C136.872 120.712 136.783 120.693 136.712 120.678C136.546 120.642 136.385 120.622 136.23 120.62C136.077 120.617 135.938 120.642 135.812 120.695C135.69 120.746 135.588 120.836 135.509 120.965C135.398 121.144 135.388 121.305 135.478 121.448C135.569 121.589 135.728 121.699 135.956 121.778ZM137.713 117.937L137.182 117.736C137.347 117.468 137.558 117.282 137.816 117.178C138.076 117.074 138.323 117.063 138.56 117.145C138.669 117.183 138.754 117.233 138.816 117.295C138.878 117.356 138.932 117.421 138.976 117.489C139.024 117.556 139.073 117.619 139.124 117.678C139.177 117.736 139.249 117.78 139.338 117.811C139.442 117.847 139.548 117.841 139.656 117.792C139.766 117.744 139.853 117.668 139.918 117.563L140.427 117.778C140.261 118.047 140.05 118.231 139.793 118.33C139.538 118.427 139.292 118.436 139.057 118.356C138.93 118.312 138.834 118.26 138.77 118.198C138.709 118.136 138.659 118.073 138.62 118.008C138.583 117.942 138.54 117.881 138.493 117.823C138.446 117.766 138.375 117.721 138.28 117.688C138.18 117.653 138.076 117.66 137.968 117.709C137.862 117.756 137.777 117.832 137.713 117.937ZM140.268 123.968C139.881 123.834 139.593 123.638 139.404 123.378C139.214 123.119 139.128 122.818 139.146 122.476C139.164 122.134 139.291 121.771 139.527 121.387C139.765 121.002 140.053 120.693 140.39 120.459C140.727 120.226 141.089 120.079 141.476 120.02C141.862 119.96 142.249 119.997 142.635 120.131C143.022 120.265 143.31 120.462 143.499 120.722C143.689 120.981 143.775 121.283 143.756 121.626C143.737 121.97 143.609 122.335 143.371 122.72C143.134 123.103 142.848 123.411 142.512 123.643C142.175 123.874 141.814 124.02 141.428 124.08C141.041 124.139 140.654 124.102 140.268 123.968ZM140.645 123.362C140.896 123.449 141.14 123.462 141.378 123.399C141.616 123.337 141.836 123.221 142.037 123.05C142.24 122.879 142.415 122.675 142.562 122.436C142.708 122.199 142.802 121.968 142.844 121.742C142.889 121.514 142.866 121.312 142.776 121.134C142.686 120.956 142.516 120.824 142.265 120.737C142.013 120.649 141.766 120.637 141.525 120.7C141.286 120.764 141.064 120.882 140.86 121.054C140.659 121.225 140.486 121.429 140.34 121.666C140.192 121.904 140.097 122.136 140.053 122.362C140.012 122.588 140.036 122.789 140.127 122.966C140.22 123.143 140.393 123.275 140.645 123.362ZM146.631 126.172C146.298 126.056 146.048 125.877 145.881 125.633C145.717 125.388 145.649 125.097 145.677 124.761C145.707 124.423 145.846 124.053 146.093 123.652C146.341 123.251 146.627 122.933 146.952 122.699C147.278 122.466 147.619 122.319 147.973 122.258C148.328 122.197 148.671 122.224 149.002 122.339C149.258 122.428 149.44 122.538 149.548 122.669C149.658 122.799 149.725 122.93 149.749 123.062C149.774 123.193 149.787 123.306 149.787 123.401L149.835 123.417L150.971 121.577L151.773 121.856L148.718 126.807L147.934 126.536L148.291 125.958L148.224 125.934C148.127 125.997 148.001 126.063 147.847 126.133C147.695 126.203 147.517 126.249 147.313 126.27C147.109 126.291 146.881 126.258 146.631 126.172ZM147.188 125.616C147.419 125.697 147.648 125.709 147.875 125.655C148.105 125.6 148.321 125.488 148.525 125.32C148.73 125.152 148.914 124.938 149.075 124.677C149.234 124.419 149.332 124.179 149.369 123.957C149.406 123.735 149.378 123.543 149.285 123.379C149.193 123.216 149.029 123.094 148.795 123.013C148.553 122.929 148.317 122.915 148.087 122.972C147.856 123.029 147.639 123.141 147.437 123.308C147.236 123.475 147.06 123.681 146.909 123.926C146.755 124.174 146.659 124.412 146.619 124.638C146.579 124.865 146.604 125.064 146.693 125.236C146.785 125.407 146.95 125.534 147.188 125.616ZM151.594 127.896C151.188 127.755 150.887 127.555 150.69 127.297C150.495 127.038 150.407 126.738 150.423 126.398C150.443 126.056 150.571 125.693 150.809 125.308C151.044 124.927 151.329 124.619 151.666 124.384C152.004 124.149 152.366 123.999 152.751 123.935C153.137 123.872 153.522 123.906 153.905 124.039C154.138 124.12 154.342 124.232 154.518 124.377C154.693 124.522 154.822 124.699 154.904 124.908C154.986 125.116 155.004 125.356 154.958 125.628C154.913 125.898 154.787 126.201 154.579 126.538L154.421 126.795L151.143 125.658L151.478 125.117L153.968 125.98C154.086 125.79 154.147 125.607 154.151 125.43C154.157 125.252 154.108 125.094 154.005 124.954C153.904 124.815 153.75 124.71 153.542 124.638C153.317 124.56 153.089 124.542 152.859 124.583C152.632 124.624 152.424 124.708 152.234 124.836C152.047 124.963 151.896 125.119 151.782 125.304L151.521 125.728C151.368 125.976 151.286 126.204 151.275 126.411C151.266 126.62 151.321 126.8 151.44 126.953C151.559 127.104 151.736 127.22 151.971 127.301C152.123 127.354 152.274 127.383 152.423 127.387C152.573 127.391 152.718 127.368 152.858 127.321C152.998 127.274 153.128 127.2 153.248 127.101L153.931 127.488C153.746 127.668 153.528 127.807 153.277 127.904C153.029 128 152.761 128.049 152.473 128.051C152.188 128.051 151.895 128 151.594 127.896ZM114.896 125.502C114.497 125.364 114.203 125.163 114.016 124.9C113.831 124.637 113.75 124.334 113.774 123.992C113.798 123.65 113.925 123.293 114.155 122.921C114.388 122.544 114.672 122.238 115.007 122.004C115.344 121.769 115.705 121.619 116.092 121.556C116.479 121.492 116.866 121.528 117.255 121.662C117.568 121.771 117.815 121.92 117.995 122.11C118.177 122.298 118.285 122.512 118.32 122.751C118.357 122.99 118.312 123.24 118.187 123.5L117.406 123.229C117.47 123.04 117.464 122.856 117.388 122.677C117.313 122.498 117.148 122.365 116.892 122.276C116.669 122.199 116.44 122.184 116.206 122.232C115.975 122.279 115.753 122.384 115.539 122.547C115.327 122.708 115.139 122.921 114.976 123.185C114.809 123.456 114.711 123.705 114.68 123.934C114.65 124.162 114.685 124.359 114.785 124.525C114.887 124.691 115.051 124.813 115.278 124.892C115.43 124.945 115.584 124.968 115.738 124.961C115.895 124.952 116.045 124.915 116.188 124.849C116.332 124.784 116.463 124.69 116.579 124.568L117.36 124.839C117.184 125.07 116.965 125.254 116.703 125.392C116.442 125.531 116.156 125.611 115.846 125.635C115.538 125.659 115.221 125.615 114.896 125.502ZM117.494 126.312L119.785 122.598L120.561 122.867L120.197 123.457L120.24 123.472C120.438 123.298 120.667 123.187 120.928 123.138C121.191 123.089 121.443 123.106 121.685 123.189C121.735 123.207 121.793 123.229 121.859 123.256C121.927 123.283 121.979 123.306 122.015 123.325L121.589 124.016C121.561 123.997 121.51 123.968 121.433 123.93C121.358 123.89 121.279 123.856 121.197 123.827C121.007 123.762 120.816 123.739 120.622 123.76C120.432 123.78 120.254 123.839 120.09 123.937C119.926 124.033 119.795 124.161 119.695 124.322L118.296 126.59L117.494 126.312ZM121.978 127.958C121.571 127.817 121.27 127.617 121.073 127.359C120.879 127.1 120.79 126.8 120.807 126.46C120.826 126.118 120.955 125.755 121.192 125.37C121.427 124.989 121.713 124.681 122.049 124.446C122.387 124.211 122.749 124.061 123.134 123.997C123.521 123.934 123.906 123.968 124.289 124.101C124.521 124.182 124.725 124.295 124.901 124.44C125.076 124.585 125.205 124.761 125.287 124.97C125.369 125.178 125.387 125.418 125.341 125.69C125.296 125.96 125.17 126.264 124.962 126.6L124.804 126.857L121.527 125.72L121.861 125.179L124.352 126.042C124.469 125.852 124.53 125.669 124.535 125.493C124.54 125.314 124.492 125.156 124.389 125.016C124.287 124.877 124.133 124.772 123.926 124.7C123.7 124.622 123.472 124.604 123.243 124.645C123.015 124.686 122.807 124.77 122.617 124.898C122.43 125.025 122.28 125.181 122.165 125.367L121.904 125.79C121.751 126.038 121.669 126.266 121.658 126.473C121.649 126.682 121.704 126.862 121.823 127.015C121.943 127.166 122.12 127.282 122.354 127.363C122.506 127.416 122.657 127.445 122.806 127.449C122.956 127.453 123.101 127.431 123.241 127.383C123.381 127.336 123.511 127.263 123.631 127.163L124.315 127.55C124.129 127.73 123.911 127.869 123.66 127.966C123.412 128.062 123.144 128.111 122.856 128.113C122.571 128.114 122.278 128.062 121.978 127.958ZM124.202 123.528L125.518 122.631L126.363 122.925L124.844 123.751L124.202 123.528ZM126.182 129.412C125.849 129.297 125.599 129.117 125.432 128.874C125.268 128.629 125.2 128.338 125.228 128.002C125.258 127.664 125.397 127.294 125.645 126.893C125.892 126.491 126.178 126.174 126.503 125.94C126.829 125.707 127.17 125.56 127.524 125.499C127.879 125.438 128.222 125.465 128.553 125.58C128.809 125.668 128.991 125.778 129.099 125.91C129.209 126.04 129.276 126.171 129.3 126.302C129.325 126.434 129.338 126.547 129.338 126.641L129.386 126.658L130.522 124.818L131.324 125.097L128.269 130.048L127.485 129.776L127.842 129.199L127.775 129.175C127.678 129.238 127.552 129.304 127.398 129.373C127.246 129.444 127.068 129.49 126.864 129.511C126.66 129.532 126.432 129.499 126.182 129.412ZM126.739 128.857C126.97 128.937 127.199 128.95 127.426 128.896C127.656 128.84 127.872 128.729 128.076 128.561C128.281 128.393 128.465 128.179 128.626 127.918C128.785 127.66 128.883 127.42 128.92 127.198C128.957 126.976 128.929 126.783 128.836 126.62C128.744 126.457 128.58 126.335 128.346 126.253C128.104 126.17 127.868 126.156 127.638 126.213C127.407 126.27 127.19 126.382 126.988 126.548C126.787 126.716 126.611 126.922 126.46 127.167C126.306 127.415 126.21 127.652 126.17 127.879C126.13 128.106 126.155 128.305 126.244 128.477C126.336 128.648 126.501 128.775 126.739 128.857ZM129.415 130.445L131.706 126.732L132.508 127.01L130.217 130.724L129.415 130.445ZM132.465 126.299C132.325 126.251 132.231 126.167 132.183 126.049C132.137 125.929 132.15 125.811 132.223 125.693C132.297 125.574 132.408 125.489 132.559 125.439C132.711 125.389 132.858 125.388 132.997 125.436C133.137 125.484 133.229 125.568 133.275 125.688C133.324 125.806 133.311 125.925 133.238 126.045C133.165 126.162 133.052 126.247 132.899 126.297C132.749 126.347 132.604 126.348 132.465 126.299ZM135.513 128.052L135.155 128.632L132.903 127.851L133.261 127.271L135.513 128.052ZM134.414 126.59L135.216 126.869L133.049 130.382C132.962 130.522 132.92 130.636 132.923 130.723C132.927 130.808 132.957 130.876 133.015 130.928C133.075 130.978 133.149 131.018 133.237 131.049C133.301 131.071 133.36 131.086 133.413 131.095C133.467 131.104 133.508 131.11 133.538 131.115L133.315 131.762C133.258 131.762 133.182 131.755 133.086 131.742C132.989 131.73 132.876 131.702 132.746 131.659C132.533 131.589 132.357 131.487 132.218 131.353C132.079 131.219 131.999 131.058 131.978 130.87C131.957 130.683 132.015 130.477 132.154 130.253L134.414 126.59ZM135.755 132.735C135.369 132.601 135.081 132.404 134.891 132.145C134.701 131.885 134.615 131.584 134.633 131.242C134.651 130.9 134.778 130.537 135.015 130.154C135.253 129.768 135.54 129.459 135.877 129.226C136.215 128.992 136.576 128.846 136.963 128.786C137.35 128.727 137.736 128.764 138.123 128.898C138.509 129.032 138.797 129.229 138.987 129.488C139.177 129.748 139.262 130.049 139.243 130.393C139.224 130.737 139.096 131.101 138.859 131.486C138.622 131.87 138.335 132.178 137.999 132.409C137.663 132.641 137.301 132.787 136.915 132.846C136.528 132.906 136.142 132.869 135.755 132.735ZM136.132 132.129C136.383 132.216 136.627 132.228 136.866 132.166C137.104 132.104 137.323 131.987 137.524 131.816C137.727 131.646 137.902 131.441 138.049 131.203C138.196 130.966 138.29 130.734 138.331 130.508C138.376 130.281 138.353 130.078 138.263 129.9C138.173 129.722 138.003 129.59 137.752 129.503C137.5 129.416 137.253 129.404 137.012 129.467C136.773 129.531 136.552 129.648 136.348 129.82C136.147 129.991 135.973 130.195 135.827 130.432C135.68 130.671 135.584 130.903 135.541 131.128C135.499 131.355 135.524 131.556 135.615 131.732C135.708 131.909 135.88 132.041 136.132 132.129Z" fill="white"/>
<path d="M287.147 102.429L293.943 104.785L287.157 115.783L280.362 113.427L287.147 102.429Z" fill="#FF8AA2"/>
<path d="M284.186 108.077C285.565 105.843 287.952 104.265 290.534 103.603C289.794 102.214 288.48 101.075 286.668 100.446C282.375 98.9579 276.972 100.882 274.586 104.749C272.201 108.616 273.744 112.949 278.037 114.437C279.849 115.065 281.857 115.078 283.749 114.601C282.738 112.717 282.807 110.312 284.186 108.077Z" fill="#FD6887"/>
<path d="M299.718 113.463C297.332 117.33 291.929 119.254 287.636 117.765C285.824 117.137 284.511 115.998 283.77 114.609C286.373 113.954 288.74 112.369 290.118 110.134C291.497 107.9 291.555 105.514 290.556 103.61C292.447 103.134 294.456 103.146 296.268 103.775C300.561 105.263 302.092 109.615 299.718 113.463L299.718 113.463Z" fill="#FD6887"/>
<rect width="186.663" height="13.9648" transform="matrix(0.944817 0.327599 -0.525072 0.851058 132.552 73.2339)" fill="#F7F8FD"/>
<rect width="186.197" height="108.763" rx="10" transform="matrix(0.938191 -0.346117 0.22937 0.973339 0.75 64.446)" fill="url(#paint1_linear_270506_8213)"/>
<mask id="mask1_270506_8213" style="mask-type:alpha" maskUnits="userSpaceOnUse" x="0" y="0" width="201" height="171">
<rect width="186.197" height="108.763" transform="matrix(0.938191 -0.346117 0.22937 0.973339 0.75 64.446)" fill="#ED713C"/>
</mask>
<g mask="url(#mask1_270506_8213)">
<ellipse opacity="0.1" cx="94.872" cy="66.7946" rx="94.872" ry="66.7946" transform="matrix(0.938191 -0.346117 0.22937 0.973339 -61.113 149.805)" fill="#333333"/>
<ellipse opacity="0.08" cx="94.872" cy="66.7946" rx="94.872" ry="66.7946" transform="matrix(0.938191 -0.346117 0.22937 0.973339 53.5911 -43.8496)" fill="#333333"/>
</g>
<path d="M163.787 102.026C163.471 102.141 163.181 102.154 162.916 102.065C162.652 101.976 162.422 101.79 162.226 101.506C162.03 101.222 161.878 100.849 161.769 100.388C161.661 99.9271 161.627 99.5119 161.669 99.1419C161.712 98.7713 161.825 98.459 162.009 98.205C162.194 97.9505 162.443 97.7654 162.756 97.6499C163.069 97.5344 163.358 97.5217 163.623 97.6119C163.887 97.7008 164.117 97.8865 164.312 98.169C164.509 98.4497 164.661 98.8202 164.77 99.2806C164.879 99.7438 164.913 100.161 164.871 100.532C164.83 100.903 164.717 101.215 164.534 101.471C164.351 101.725 164.102 101.91 163.787 102.026ZM163.657 101.472C163.934 101.37 164.117 101.15 164.207 100.811C164.298 100.473 164.281 100.038 164.156 99.507C164.073 99.1544 163.967 98.8698 163.838 98.653C163.709 98.4343 163.564 98.2867 163.401 98.21C163.239 98.1315 163.067 98.1259 162.884 98.1933C162.608 98.295 162.425 98.5159 162.334 98.856C162.243 99.1961 162.26 99.6311 162.383 100.161C162.466 100.515 162.572 100.801 162.701 101.02C162.83 101.237 162.975 101.384 163.137 101.461C163.298 101.537 163.471 101.54 163.657 101.472ZM166.476 100.957L167.399 96.6313L167.392 96.6002L165.325 97.3627L165.195 96.8131L167.902 95.8146L168.036 96.3828L167.122 100.719L166.476 100.957ZM170.586 94.6078L170.465 100.18L169.932 100.377L170.053 94.8047L170.586 94.6078ZM172.603 98.6968L172.494 98.2322L173.528 96.2321C173.638 96.0158 173.726 95.8291 173.794 95.672C173.862 95.5131 173.907 95.3695 173.929 95.2412C173.951 95.1128 173.947 94.9865 173.918 94.862C173.885 94.721 173.824 94.6112 173.736 94.5324C173.647 94.4523 173.541 94.4051 173.418 94.3906C173.294 94.3747 173.162 94.3923 173.024 94.4434C172.877 94.4975 172.757 94.5758 172.662 94.6783C172.567 94.7809 172.504 94.8996 172.472 95.0347C172.44 95.1697 172.442 95.3132 172.478 95.4653L171.888 95.6828C171.828 95.4243 171.832 95.1771 171.901 94.9413C171.97 94.7054 172.091 94.4974 172.266 94.3172C172.441 94.1356 172.655 93.9978 172.91 93.9039C173.167 93.8091 173.406 93.7787 173.627 93.8129C173.849 93.8452 174.037 93.9322 174.19 94.0739C174.344 94.2142 174.447 94.3984 174.501 94.6266C174.538 94.7842 174.546 94.9489 174.524 95.1208C174.504 95.2921 174.445 95.4962 174.349 95.7331C174.252 95.9686 174.11 96.2637 173.923 96.6183L173.318 97.8019L173.325 97.833L175.168 97.1531L175.298 97.7027L172.603 98.6968ZM177.967 96.7809C177.784 96.8455 177.596 96.8773 177.403 96.8763C177.212 96.8749 177.026 96.8232 176.845 96.7215C176.665 96.6197 176.5 96.4542 176.352 96.2248C176.205 95.995 176.086 95.6844 175.994 95.2932C175.906 94.9226 175.864 94.5805 175.867 94.2669C175.871 93.9528 175.917 93.672 176.005 93.4247C176.093 93.1759 176.22 92.9646 176.386 92.7906C176.552 92.6166 176.754 92.4858 176.991 92.3983C177.235 92.3083 177.463 92.2782 177.676 92.3079C177.889 92.3377 178.074 92.4187 178.233 92.551C178.393 92.6828 178.515 92.8549 178.6 93.067L177.99 93.292C177.907 93.1302 177.791 93.016 177.642 92.9492C177.493 92.8825 177.32 92.8855 177.123 92.9582C176.823 93.0689 176.621 93.2906 176.517 93.6236C176.414 93.956 176.419 94.3637 176.532 94.8467L176.562 94.8357C176.604 94.6893 176.666 94.5551 176.749 94.4329C176.833 94.3088 176.933 94.2004 177.051 94.1075C177.169 94.0128 177.299 93.9392 177.442 93.8866C177.679 93.7991 177.908 93.7801 178.128 93.8296C178.349 93.8772 178.542 93.9849 178.706 94.1528C178.87 94.3207 178.984 94.5401 179.048 94.8111C179.112 95.0821 179.11 95.3493 179.044 95.6129C178.978 95.876 178.854 96.1112 178.671 96.3184C178.488 96.5243 178.253 96.6785 177.967 96.7809ZM177.838 96.2424C177.996 96.1844 178.127 96.0924 178.232 95.9665C178.337 95.8406 178.409 95.6966 178.449 95.5346C178.489 95.3726 178.49 95.2079 178.45 95.0406C178.412 94.8775 178.341 94.7419 178.239 94.6338C178.138 94.5253 178.017 94.4542 177.876 94.4206C177.736 94.3866 177.588 94.3983 177.432 94.4558C177.314 94.4996 177.209 94.5636 177.119 94.648C177.03 94.7319 176.958 94.8293 176.901 94.9403C176.845 95.0513 176.807 95.1688 176.789 95.2929C176.771 95.415 176.777 95.5356 176.805 95.6545C176.842 95.8135 176.912 95.9477 177.015 96.0571C177.118 96.1661 177.242 96.2392 177.386 96.2764C177.53 96.3118 177.681 96.3004 177.838 96.2424Z" fill="white"/>
<path opacity="0.9" d="M40.3309 147.558C40.0297 147.669 39.7531 147.678 39.5012 147.587C39.2489 147.493 39.0285 147.305 38.84 147.021C38.6511 146.736 38.5023 146.363 38.3935 145.901C38.2853 145.442 38.2489 145.029 38.2843 144.663C38.3207 144.295 38.4246 143.986 38.5961 143.737C38.7686 143.485 39.0041 143.304 39.3026 143.194C39.6012 143.084 39.8767 143.076 40.1293 143.171C40.383 143.264 40.6042 143.453 40.793 143.738C40.9829 144.021 41.1319 144.392 41.2401 144.851C41.3489 145.313 41.3858 145.727 41.3507 146.095C41.3153 146.461 41.2119 146.769 41.0404 147.019C40.8686 147.267 40.6321 147.447 40.3309 147.558ZM40.2234 147.101C40.5219 146.991 40.7186 146.756 40.8135 146.397C40.9083 146.037 40.8906 145.581 40.7603 145.028C40.6736 144.66 40.5619 144.361 40.425 144.13C40.2894 143.899 40.135 143.742 39.9618 143.659C39.79 143.575 39.6054 143.569 39.4082 143.642C39.1124 143.751 38.9168 143.988 38.8216 144.352C38.726 144.715 38.7433 145.172 38.8732 145.724C38.9599 146.092 39.0709 146.391 39.2061 146.62C39.3413 146.85 39.4947 147.006 39.6662 147.088C39.8391 147.17 40.0248 147.175 40.2234 147.101ZM44.3182 146.087C44.017 146.198 43.7405 146.207 43.4885 146.116C43.2362 146.022 43.0158 145.834 42.8273 145.55C42.6385 145.265 42.4896 144.892 42.3808 144.43C42.2726 143.971 42.2362 143.558 42.2716 143.192C42.308 142.824 42.4119 142.515 42.5834 142.266C42.7559 142.014 42.9914 141.833 43.29 141.723C43.5885 141.613 43.864 141.605 44.1167 141.7C44.3703 141.793 44.5915 141.982 44.7803 142.267C44.9702 142.55 45.1192 142.921 45.2274 143.38C45.3362 143.842 45.3731 144.256 45.338 144.624C45.3026 144.99 45.1992 145.298 45.0277 145.548C44.8559 145.796 44.6194 145.976 44.3182 146.087ZM44.2107 145.63C44.5092 145.52 44.7059 145.285 44.8008 144.926C44.8957 144.566 44.8779 144.11 44.7476 143.557C44.6609 143.189 44.5492 142.89 44.4123 142.659C44.2767 142.428 44.1223 142.271 43.9492 142.188C43.7773 142.104 43.5928 142.098 43.3955 142.171C43.0997 142.28 42.9041 142.517 42.8089 142.881C42.7133 143.244 42.7306 143.701 42.8606 144.253C42.9472 144.621 43.0582 144.92 43.1934 145.149C43.3286 145.379 43.482 145.535 43.6535 145.617C43.8264 145.699 44.0121 145.704 44.2107 145.63ZM48.3055 144.616C48.0043 144.727 47.7278 144.736 47.4758 144.645C47.2235 144.551 47.0031 144.363 46.8146 144.079C46.6258 143.794 46.4769 143.421 46.3681 142.959C46.2599 142.5 46.2236 142.087 46.2589 141.721C46.2953 141.353 46.3993 141.044 46.5707 140.795C46.7432 140.543 46.9788 140.362 47.2773 140.252C47.5758 140.142 47.8514 140.134 48.104 140.229C48.3576 140.322 48.5788 140.511 48.7677 140.796C48.9575 141.079 49.1065 141.45 49.2147 141.909C49.3235 142.371 49.3604 142.785 49.3253 143.153C49.29 143.519 49.1865 143.827 49.015 144.077C48.8432 144.325 48.6067 144.505 48.3055 144.616ZM48.198 144.159C48.4965 144.049 48.6932 143.814 48.7881 143.455C48.883 143.095 48.8652 142.639 48.7349 142.086C48.6483 141.718 48.5365 141.419 48.3996 141.189C48.264 140.957 48.1097 140.8 47.9365 140.717C47.7646 140.633 47.5801 140.627 47.3828 140.7C47.087 140.809 46.8914 141.046 46.7962 141.41C46.7007 141.773 46.7179 142.23 46.8479 142.782C46.9345 143.15 47.0455 143.449 47.1807 143.678C47.3159 143.908 47.4693 144.064 47.6409 144.146C47.8137 144.228 47.9994 144.233 48.198 144.159ZM52.2928 143.145C51.9917 143.256 51.7151 143.265 51.4631 143.174C51.2108 143.08 50.9904 142.892 50.8019 142.608C50.6131 142.323 50.4643 141.95 50.3554 141.488C50.2473 141.029 50.2109 140.616 50.2462 140.25C50.2826 139.882 50.3866 139.573 50.5581 139.324C50.7306 139.072 50.9661 138.891 51.2646 138.781C51.5631 138.671 51.8387 138.663 52.0913 138.758C52.3449 138.851 52.5661 139.04 52.755 139.325C52.9448 139.608 53.0938 139.979 53.202 140.438C53.3108 140.9 53.3477 141.314 53.3126 141.682C53.2773 142.048 53.1738 142.356 53.0023 142.606C52.8305 142.854 52.594 143.034 52.2928 143.145ZM52.1853 142.688C52.4838 142.578 52.6805 142.343 52.7754 141.984C52.8703 141.624 52.8526 141.168 52.7222 140.615C52.6356 140.247 52.5238 139.948 52.3869 139.718C52.2513 139.486 52.097 139.329 51.9238 139.246C51.7519 139.162 51.5674 139.156 51.3701 139.229C51.0743 139.338 50.8788 139.575 50.7835 139.939C50.688 140.302 50.7052 140.759 50.8352 141.311C50.9219 141.679 51.0328 141.978 51.168 142.207C51.3033 142.437 51.4566 142.593 51.6282 142.675C51.801 142.757 51.9868 142.762 52.1853 142.688ZM58.3324 140.917C58.0313 141.028 57.7547 141.037 57.5027 140.945C57.2504 140.852 57.03 140.664 56.8415 140.38C56.6527 140.095 56.5039 139.722 56.395 139.26C56.2869 138.801 56.2505 138.388 56.2859 138.022C56.3222 137.654 56.4262 137.345 56.5977 137.096C56.7702 136.844 57.0057 136.663 57.3042 136.553C57.6027 136.443 57.8783 136.435 58.1309 136.53C58.3845 136.623 58.6057 136.812 58.7946 137.097C58.9844 137.38 59.1334 137.751 59.2416 138.21C59.3504 138.672 59.3873 139.086 59.3522 139.454C59.3169 139.82 59.2134 140.128 59.0419 140.378C58.8701 140.626 58.6336 140.805 58.3324 140.917ZM58.2249 140.46C58.5234 140.35 58.7201 140.115 58.815 139.756C58.9099 139.396 58.8922 138.94 58.7618 138.387C58.6752 138.019 58.5634 137.72 58.4265 137.489C58.291 137.258 58.1366 137.101 57.9634 137.018C57.7915 136.934 57.607 136.928 57.4098 137.001C57.1139 137.11 56.9184 137.347 56.8231 137.711C56.7276 138.074 56.7448 138.531 56.8748 139.083C56.9615 139.451 57.0724 139.749 57.2076 139.979C57.3429 140.209 57.4962 140.365 57.6678 140.447C57.8406 140.529 58.0264 140.534 58.2249 140.46ZM62.3198 139.446C62.0186 139.557 61.742 139.566 61.49 139.474C61.2377 139.381 61.0173 139.193 60.8288 138.909C60.64 138.624 60.4912 138.251 60.3824 137.789C60.2742 137.33 60.2378 136.917 60.2732 136.551C60.3096 136.183 60.4135 135.874 60.585 135.625C60.7575 135.373 60.993 135.192 61.2915 135.082C61.59 134.972 61.8656 134.964 62.1182 135.059C62.3718 135.152 62.5931 135.341 62.7819 135.626C62.9717 135.909 63.1207 136.28 63.2289 136.739C63.3377 137.201 63.3746 137.615 63.3396 137.983C63.3042 138.349 63.2007 138.657 63.0293 138.907C62.8574 139.155 62.6209 139.334 62.3198 139.446ZM62.2122 138.989C62.5108 138.879 62.7075 138.644 62.8023 138.285C62.8972 137.925 62.8795 137.469 62.7492 136.916C62.6625 136.548 62.5507 136.249 62.4138 136.018C62.2783 135.787 62.1239 135.63 61.9507 135.547C61.7788 135.463 61.5943 135.457 61.3971 135.53C61.1012 135.639 60.9057 135.876 60.8104 136.24C60.7149 136.603 60.7321 137.06 60.8621 137.612C60.9488 137.98 61.0597 138.278 61.195 138.508C61.3302 138.738 61.4836 138.894 61.6551 138.976C61.828 139.058 62.0137 139.063 62.2122 138.989ZM66.3071 137.975C66.0059 138.086 65.7293 138.095 65.4774 138.003C65.2251 137.91 65.0047 137.722 64.8161 137.438C64.6273 137.153 64.4785 136.78 64.3697 136.318C64.2615 135.859 64.2251 135.446 64.2605 135.08C64.2969 134.712 64.4008 134.403 64.5723 134.154C64.7448 133.902 64.9803 133.721 65.2788 133.611C65.5773 133.501 65.8529 133.493 66.1055 133.588C66.3591 133.681 66.5804 133.87 66.7692 134.155C66.959 134.438 67.1081 134.809 67.2162 135.268C67.325 135.73 67.3619 136.144 67.3269 136.512C67.2915 136.878 67.1881 137.186 67.0166 137.436C66.8448 137.684 66.6083 137.863 66.3071 137.975ZM66.1996 137.518C66.4981 137.408 66.6948 137.173 66.7896 136.814C66.8845 136.454 66.8668 135.998 66.7365 135.445C66.6498 135.077 66.538 134.778 66.4011 134.547C66.2656 134.316 66.1112 134.159 65.938 134.076C65.7662 133.992 65.5816 133.986 65.3844 134.059C65.0885 134.168 64.893 134.405 64.7978 134.769C64.7022 135.132 64.7194 135.589 64.8494 136.141C64.9361 136.509 65.047 136.807 65.1823 137.037C65.3175 137.267 65.4709 137.423 65.6424 137.505C65.8153 137.587 66.001 137.592 66.1996 137.518ZM70.2944 136.504C69.9932 136.615 69.7166 136.624 69.4647 136.532C69.2124 136.439 68.992 136.251 68.8035 135.967C68.6146 135.682 68.4658 135.309 68.357 134.847C68.2488 134.388 68.2124 133.975 68.2478 133.609C68.2842 133.241 68.3881 132.932 68.5596 132.683C68.7321 132.431 68.9676 132.25 69.2661 132.14C69.5646 132.03 69.8402 132.022 70.0928 132.117C70.3465 132.21 70.5677 132.399 70.7565 132.684C70.9464 132.967 71.0954 133.338 71.2035 133.797C71.3124 134.259 71.3492 134.673 71.3142 135.041C71.2788 135.407 71.1754 135.715 71.0039 135.965C70.8321 136.213 70.5956 136.393 70.2944 136.504ZM70.1869 136.047C70.4854 135.937 70.6821 135.702 70.777 135.343C70.8718 134.983 70.8541 134.527 70.7238 133.974C70.6371 133.606 70.5253 133.307 70.3884 133.076C70.2529 132.845 70.0985 132.688 69.9253 132.605C69.7535 132.521 69.5689 132.515 69.3717 132.588C69.0758 132.697 68.8803 132.934 68.7851 133.298C68.6895 133.661 68.7067 134.118 68.8367 134.67C68.9234 135.038 69.0343 135.336 69.1696 135.566C69.3048 135.796 69.4582 135.952 69.6297 136.034C69.8026 136.116 69.9883 136.121 70.1869 136.047ZM76.334 134.275C76.0328 134.387 75.7562 134.396 75.5043 134.304C75.252 134.211 75.0316 134.023 74.8431 133.739C74.6542 133.454 74.5054 133.081 74.3966 132.619C74.2884 132.16 74.252 131.747 74.2874 131.381C74.3238 131.013 74.4277 130.704 74.5992 130.454C74.7717 130.203 75.0072 130.022 75.3057 129.912C75.6043 129.802 75.8798 129.794 76.1324 129.889C76.3861 129.982 76.6073 130.17 76.7961 130.455C76.986 130.739 77.135 131.11 77.2431 131.569C77.352 132.03 77.3888 132.445 77.3538 132.813C77.3184 133.179 77.215 133.487 77.0435 133.736C76.8717 133.985 76.6352 134.164 76.334 134.275ZM76.2265 133.819C76.525 133.709 76.7217 133.474 76.8166 133.115C76.9114 132.755 76.8937 132.299 76.7634 131.746C76.6767 131.378 76.5649 131.079 76.4281 130.848C76.2925 130.617 76.1381 130.46 75.9649 130.377C75.7931 130.293 75.6085 130.287 75.4113 130.36C75.1154 130.469 74.9199 130.706 74.8247 131.07C74.7291 131.433 74.7463 131.89 74.8763 132.442C74.963 132.81 75.074 133.108 75.2092 133.338C75.3444 133.568 75.4978 133.724 75.6693 133.806C75.8422 133.888 76.0279 133.892 76.2265 133.819ZM80.3213 132.804C80.0201 132.916 79.7436 132.925 79.4916 132.833C79.2393 132.74 79.0189 132.552 78.8304 132.268C78.6415 131.983 78.4927 131.61 78.3839 131.148C78.2757 130.689 78.2393 130.276 78.2747 129.91C78.3111 129.542 78.415 129.233 78.5865 128.983C78.759 128.732 78.9945 128.551 79.293 128.441C79.5916 128.331 79.8671 128.323 80.1198 128.418C80.3734 128.511 80.5946 128.699 80.7834 128.984C80.9733 129.268 81.1223 129.639 81.2305 130.098C81.3393 130.559 81.3762 130.974 81.3411 131.342C81.3057 131.708 81.2023 132.016 81.0308 132.265C80.859 132.514 80.6225 132.693 80.3213 132.804ZM80.2138 132.348C80.5123 132.238 80.709 132.003 80.8039 131.644C80.8987 131.284 80.881 130.828 80.7507 130.275C80.664 129.907 80.5523 129.608 80.4154 129.377C80.2798 129.146 80.1254 128.989 79.9522 128.906C79.7804 128.822 79.5958 128.816 79.3986 128.889C79.1028 128.998 78.9072 129.235 78.812 129.599C78.7164 129.962 78.7337 130.419 78.8637 130.971C78.9503 131.339 79.0613 131.637 79.1965 131.867C79.3317 132.097 79.4851 132.253 79.6566 132.335C79.8295 132.417 80.0152 132.421 80.2138 132.348ZM84.3086 131.333C84.0074 131.445 83.7309 131.454 83.4789 131.362C83.2266 131.269 83.0062 131.081 82.8177 130.797C82.6289 130.512 82.48 130.139 82.3712 129.677C82.263 129.218 82.2266 128.805 82.262 128.439C82.2984 128.071 82.4023 127.762 82.5738 127.512C82.7463 127.261 82.9818 127.08 83.2804 126.97C83.5789 126.86 83.8544 126.852 84.1071 126.947C84.3607 127.04 84.5819 127.229 84.7708 127.513C84.9606 127.797 85.1096 128.168 85.2178 128.627C85.3266 129.088 85.3635 129.503 85.3284 129.871C85.293 130.237 85.1896 130.545 85.0181 130.794C84.8463 131.043 84.6098 131.222 84.3086 131.333ZM84.2011 130.877C84.4996 130.767 84.6963 130.532 84.7912 130.173C84.8861 129.813 84.8683 129.357 84.738 128.804C84.6513 128.436 84.5396 128.137 84.4027 127.906C84.2671 127.675 84.1128 127.518 83.9396 127.435C83.7677 127.351 83.5832 127.345 83.3859 127.418C83.0901 127.527 82.8945 127.764 82.7993 128.128C82.7037 128.491 82.721 128.948 82.851 129.5C82.9376 129.868 83.0486 130.166 83.1838 130.396C83.319 130.626 83.4724 130.782 83.644 130.864C83.8168 130.946 84.0025 130.95 84.2011 130.877ZM88.2959 129.862C87.9948 129.974 87.7182 129.983 87.4662 129.891C87.2139 129.798 86.9935 129.61 86.805 129.326C86.6162 129.041 86.4673 128.668 86.3585 128.206C86.2504 127.747 86.214 127.334 86.2493 126.968C86.2857 126.6 86.3897 126.291 86.5612 126.041C86.7337 125.79 86.9692 125.609 87.2677 125.499C87.5662 125.389 87.8418 125.381 88.0944 125.476C88.348 125.569 88.5692 125.758 88.7581 126.042C88.9479 126.326 89.0969 126.697 89.2051 127.156C89.3139 127.617 89.3508 128.032 89.3157 128.4C89.2804 128.766 89.1769 129.074 89.0054 129.323C88.8336 129.572 88.5971 129.751 88.2959 129.862ZM88.1884 129.406C88.4869 129.296 88.6836 129.061 88.7785 128.702C88.8734 128.342 88.8557 127.886 88.7253 127.333C88.6387 126.965 88.5269 126.666 88.39 126.435C88.2544 126.204 88.1001 126.047 87.9269 125.964C87.755 125.88 87.5705 125.874 87.3732 125.947C87.0774 126.056 86.8818 126.293 86.7866 126.657C86.6911 127.02 86.7083 127.477 86.8383 128.029C86.9249 128.397 87.0359 128.695 87.1711 128.925C87.3064 129.155 87.4597 129.311 87.6313 129.393C87.8041 129.475 87.9898 129.479 88.1884 129.406ZM94.3355 127.634C94.0344 127.745 93.7578 127.755 93.5058 127.663C93.2535 127.57 93.0331 127.381 92.8446 127.098C92.6558 126.813 92.507 126.44 92.3981 125.978C92.29 125.519 92.2536 125.106 92.2889 124.74C92.3253 124.372 92.4293 124.063 92.6008 123.813C92.7733 123.562 93.0088 123.381 93.3073 123.271C93.6058 123.161 93.8814 123.153 94.134 123.248C94.3876 123.34 94.6088 123.529 94.7977 123.814C94.9875 124.097 95.1365 124.469 95.2447 124.928C95.3535 125.389 95.3904 125.804 95.3553 126.172C95.32 126.538 95.2165 126.846 95.045 127.095C94.8732 127.344 94.6367 127.523 94.3355 127.634ZM94.228 127.178C94.5265 127.068 94.7232 126.833 94.8181 126.474C94.913 126.114 94.8953 125.658 94.7649 125.105C94.6783 124.737 94.5665 124.438 94.4296 124.207C94.294 123.976 94.1397 123.819 93.9665 123.736C93.7946 123.652 93.6101 123.646 93.4128 123.719C93.117 123.828 92.9215 124.065 92.8262 124.429C92.7307 124.792 92.7479 125.249 92.8779 125.801C92.9646 126.168 93.0755 126.467 93.2107 126.697C93.346 126.926 93.4993 127.083 93.6709 127.165C93.8437 127.247 94.0295 127.251 94.228 127.178ZM98.3229 126.163C98.0217 126.274 97.7451 126.284 97.4931 126.192C97.2408 126.099 97.0204 125.91 96.8319 125.627C96.6431 125.342 96.4943 124.969 96.3854 124.507C96.2773 124.048 96.2409 123.635 96.2763 123.269C96.3126 122.901 96.4166 122.592 96.5881 122.342C96.7606 122.091 96.9961 121.91 97.2946 121.8C97.5931 121.69 97.8687 121.682 98.1213 121.777C98.3749 121.869 98.5962 122.058 98.785 122.343C98.9748 122.626 99.1238 122.998 99.232 123.457C99.3408 123.918 99.3777 124.333 99.3427 124.701C99.3073 125.067 99.2038 125.375 99.0324 125.624C98.8605 125.873 98.624 126.052 98.3229 126.163ZM98.2153 125.707C98.5139 125.597 98.7105 125.362 98.8054 125.003C98.9003 124.643 98.8826 124.187 98.7522 123.634C98.6656 123.266 98.5538 122.967 98.4169 122.736C98.2814 122.505 98.127 122.348 97.9538 122.265C97.7819 122.181 97.5974 122.175 97.4002 122.248C97.1043 122.357 96.9088 122.594 96.8135 122.958C96.718 123.321 96.7352 123.778 96.8652 124.33C96.9519 124.697 97.0628 124.996 97.198 125.226C97.3333 125.455 97.4867 125.612 97.6582 125.694C97.8311 125.776 98.0168 125.78 98.2153 125.707ZM102.31 124.692C102.009 124.803 101.732 124.813 101.48 124.721C101.228 124.628 101.008 124.439 100.819 124.156C100.63 123.871 100.482 123.498 100.373 123.036C100.265 122.577 100.228 122.164 100.264 121.798C100.3 121.43 100.404 121.121 100.575 120.871C100.748 120.62 100.983 120.439 101.282 120.329C101.58 120.219 101.856 120.211 102.109 120.306C102.362 120.398 102.583 120.587 102.772 120.872C102.962 121.155 103.111 121.527 103.219 121.986C103.328 122.447 103.365 122.862 103.33 123.23C103.295 123.596 103.191 123.904 103.02 124.153C102.848 124.402 102.611 124.581 102.31 124.692ZM102.203 124.236C102.501 124.126 102.698 123.891 102.793 123.532C102.888 123.172 102.87 122.716 102.74 122.163C102.653 121.795 102.541 121.496 102.404 121.265C102.269 121.034 102.114 120.877 101.941 120.794C101.769 120.71 101.585 120.704 101.387 120.777C101.092 120.886 100.896 121.123 100.801 121.487C100.705 121.85 100.723 122.307 100.853 122.859C100.939 123.227 101.05 123.525 101.185 123.755C101.321 123.984 101.474 124.141 101.646 124.223C101.818 124.305 102.004 124.309 102.203 124.236ZM106.297 123.221C105.996 123.332 105.72 123.342 105.468 123.25C105.215 123.157 104.995 122.968 104.807 122.685C104.618 122.4 104.469 122.027 104.36 121.565C104.252 121.106 104.216 120.693 104.251 120.327C104.287 119.959 104.391 119.65 104.563 119.4C104.735 119.149 104.971 118.968 105.269 118.858C105.568 118.748 105.843 118.74 106.096 118.835C106.35 118.927 106.571 119.116 106.76 119.401C106.949 119.684 107.098 120.056 107.207 120.515C107.315 120.976 107.352 121.391 107.317 121.759C107.282 122.125 107.178 122.433 107.007 122.682C106.835 122.931 106.599 123.11 106.297 123.221ZM106.19 122.765C106.488 122.655 106.685 122.42 106.78 122.061C106.875 121.701 106.857 121.245 106.727 120.692C106.64 120.324 106.528 120.025 106.392 119.794C106.256 119.563 106.102 119.406 105.928 119.323C105.757 119.239 105.572 119.233 105.375 119.306C105.079 119.415 104.883 119.652 104.788 120.016C104.693 120.379 104.71 120.836 104.84 121.388C104.926 121.756 105.037 122.054 105.173 122.284C105.308 122.513 105.461 122.67 105.633 122.752C105.806 122.834 105.991 122.838 106.19 122.765Z" fill="white"/>
<path d="M146.743 28.0803L153.49 25.591L156.455 38.1695L149.707 40.6588L146.743 28.0803Z" fill="#FF5F00"/>
<path d="M146.636 48.6733L146.322 47.34C146.202 46.8287 145.823 46.6061 145.309 46.7958C145.052 46.8906 144.795 47.0823 144.67 47.4423C144.462 47.2531 144.217 47.1988 143.895 47.3174C143.681 47.3964 143.483 47.542 143.369 47.8497L143.306 47.5831L142.856 47.749L143.359 49.8824L143.809 49.7165L143.531 48.5386C143.442 48.1609 143.593 47.9119 143.893 47.8013C144.193 47.6907 144.39 47.8354 144.474 48.1909L144.751 49.3687L145.201 49.2028L144.924 48.0249C144.835 47.6472 145.007 47.3904 145.285 47.2876C145.585 47.177 145.782 47.3217 145.866 47.6773L146.144 48.8551L146.636 48.6733ZM152.795 44.0823L152.067 44.3509L151.915 43.7065L151.466 43.8724L151.617 44.5169L151.21 44.667L151.31 45.0892L151.717 44.939L151.947 45.917C152.062 46.4059 152.323 46.6236 152.838 46.4339C153.03 46.3628 153.229 46.2172 153.358 46.073L153.135 45.7203C153.027 45.8566 152.883 45.9342 152.776 45.9737C152.561 46.0527 152.444 45.951 152.392 45.7287L152.167 44.7731L152.895 44.5044L152.795 44.0823ZM156.598 42.631C156.341 42.7258 156.201 42.9225 156.136 43.1398L156.073 42.8731L155.623 43.0391L156.126 45.1725L156.576 45.0065L156.293 43.8065C156.209 43.451 156.312 43.1956 156.59 43.0929C156.676 43.0613 156.788 43.044 156.879 43.0346L156.903 42.5428C156.812 42.5521 156.684 42.5995 156.598 42.6311L156.598 42.631ZM150.888 44.9791C150.637 44.9026 150.322 44.9466 150 45.0651C149.486 45.2548 149.206 45.6479 149.306 46.0701C149.39 46.4257 149.694 46.5309 150.159 46.4316L150.379 46.3749C150.625 46.3323 150.769 46.3516 150.795 46.4627C150.832 46.6182 150.687 46.7926 150.387 46.9033C150.087 47.0139 149.825 46.9897 149.649 46.9339L149.519 47.3685C149.796 47.4593 150.138 47.4297 150.46 47.3112C151.06 47.0899 151.334 46.6746 151.24 46.2745C151.151 45.8967 150.825 45.7994 150.381 45.8909L150.162 45.9476C149.964 45.9965 149.803 46.0074 149.772 45.8741C149.735 45.7185 149.864 45.5743 150.1 45.4874C150.357 45.3925 150.64 45.4088 150.784 45.4281L150.888 44.9791ZM162.789 40.3473C162.532 40.4421 162.392 40.6387 162.326 40.856L162.264 40.5893L161.814 40.7553L162.316 42.8887L162.766 42.7227L162.483 41.5227C162.4 41.1671 162.503 40.9118 162.781 40.8091C162.867 40.7774 162.979 40.7602 163.07 40.7507L163.094 40.2589C163.003 40.2682 162.874 40.3157 162.789 40.3473ZM157.31 43.5763C157.462 44.2208 158 44.5294 158.664 44.2844C158.964 44.1738 159.162 44.0282 159.335 43.7714L159.031 43.4726C158.892 43.6691 158.736 43.799 158.543 43.8701C158.179 44.0044 157.859 43.8326 157.76 43.4104C157.665 43.0104 157.859 42.6488 158.218 42.4923C158.411 42.4212 158.598 42.4246 158.801 42.4948L158.926 42.038C158.67 41.9391 158.44 41.9515 158.14 42.0621C157.476 42.3071 157.158 42.9319 157.31 43.5763ZM161.465 42.0432L161.214 40.9765L160.764 41.1425L160.827 41.4091C160.63 41.2645 160.39 41.2324 160.111 41.3351C159.533 41.5485 159.193 42.1811 159.345 42.8256C159.497 43.47 160.056 43.7708 160.635 43.5574C160.935 43.4468 161.123 43.2567 161.204 43.0092L161.267 43.2759L161.717 43.1099L161.465 42.0432ZM159.816 42.6517C159.727 42.2739 159.889 41.8759 160.275 41.7337C160.639 41.5993 160.964 41.7934 161.058 42.1934C161.147 42.5712 160.964 42.9771 160.599 43.1115C160.209 43.2314 159.905 43.0295 159.816 42.6517ZM154.177 43.5241C153.578 43.7454 153.254 44.3479 153.411 45.0146C153.568 45.6813 154.101 45.9677 154.723 45.7385C155.022 45.6279 155.301 45.4284 155.49 45.1415L155.197 44.8872C155.057 45.0837 154.864 45.2516 154.65 45.3306C154.371 45.4334 154.061 45.4028 153.908 45.0486L155.429 44.4875L155.387 44.3098C155.246 43.6129 154.756 43.3107 154.177 43.5241L154.177 43.5241ZM154.272 43.9241C154.55 43.8214 154.785 43.9281 154.906 44.2457L153.835 44.6408C153.81 44.3361 153.95 44.0426 154.272 43.9241ZM165.6 40.518L165.149 38.6068L164.699 38.7728L164.961 39.8839C164.764 39.7393 164.524 39.7072 164.245 39.8099C163.667 40.0233 163.327 40.6559 163.479 41.3004C163.631 41.9448 164.191 42.2456 164.769 42.0322C165.069 41.9215 165.257 41.7315 165.338 41.484L165.401 41.7507L165.851 41.5847L165.6 40.518ZM163.95 41.1265C163.861 40.7487 164.023 40.3507 164.409 40.2084C164.773 40.0741 165.098 40.2682 165.193 40.6682C165.282 41.046 165.098 41.4519 164.734 41.5862C164.343 41.7062 164.039 41.5043 163.95 41.1265ZM148.913 46.6741L148.661 45.6074L148.211 45.7734L148.274 46.04C148.077 45.8954 147.837 45.8633 147.558 45.966C146.98 46.1794 146.64 46.812 146.792 47.4565C146.944 48.101 147.504 48.4017 148.082 48.1883C148.382 48.0777 148.57 47.8876 148.651 47.6402L148.714 47.9068L149.164 47.7409L148.913 46.6741ZM147.242 47.2906C147.153 46.9127 147.315 46.5147 147.701 46.3725C148.065 46.2381 148.39 46.4322 148.484 46.8322C148.573 47.21 148.39 47.6159 148.025 47.7503C147.635 47.8702 147.331 47.6684 147.242 47.2906Z" fill="white"/>
<path d="M148.653 34.2116C148.051 31.6559 148.674 28.9623 150.106 26.8397C148.548 26.255 146.747 26.219 144.947 26.8828C140.684 28.4555 138.079 33.3057 139.121 37.7282C140.163 42.1506 144.455 44.4564 148.718 42.8837C150.517 42.2199 152.015 40.967 153.07 39.4181C150.952 38.6295 149.256 36.7672 148.653 34.2116Z" fill="#E51D37"/>
<path d="M164.076 28.5217C165.118 32.9442 162.513 37.7945 158.25 39.3671C156.451 40.0309 154.649 39.995 153.091 39.4102C154.545 37.2797 155.146 34.594 154.544 32.0384C153.942 29.4827 152.251 27.6427 150.127 26.8318C151.182 25.283 152.68 24.0301 154.479 23.3662C158.742 21.7936 163.039 24.1215 164.076 28.5217L164.076 28.5217Z" fill="#F79E1B"/>
<path d="M28.3601 75.9063L30.0282 82.9851L28.9288 83.3907L24.5775 79.7551L24.5208 79.776L25.6571 84.5977L24.421 85.0537L22.7529 77.9749L23.859 77.5668L28.2078 81.2072L28.2678 81.1851L27.1307 76.3598L28.3601 75.9063ZM31.3217 82.5079L30.0706 77.1988L31.2767 76.7539L32.5278 82.063L31.3217 82.5079ZM30.4994 76.2216C30.3084 76.2921 30.1285 76.287 29.9599 76.2065C29.7907 76.1236 29.6841 75.9889 29.6401 75.8022C29.5956 75.6133 29.6267 75.4277 29.7334 75.2456C29.8397 75.0611 29.9883 74.9337 30.1793 74.8632C30.3725 74.7919 30.5526 74.7981 30.7196 74.8818C30.8883 74.9623 30.9949 75.0971 31.0394 75.286C31.0834 75.4727 31.0523 75.6582 30.946 75.8427C30.8415 76.024 30.6926 76.1503 30.4994 76.2216ZM34.4748 79.5338L34.1155 78.0246L34.3088 77.9533L35.6453 75.1422L37.0546 74.6223L35.4082 78.0699L35.1583 78.1621L34.4748 79.5338ZM33.768 81.6055L32.0998 74.5266L33.3059 74.0817L34.974 81.1605L33.768 81.6055ZM36.9797 80.4206L34.7445 78.6191L35.3497 77.4378L38.4223 79.8884L36.9797 80.4206ZM41.1553 78.9928C40.6556 79.1772 40.1956 79.2229 39.7754 79.13C39.3551 79.0371 38.9956 78.8228 38.6968 78.4872C38.4003 78.1508 38.1874 77.7083 38.0581 77.1599C37.9289 76.6115 37.9156 76.0942 38.0183 75.608C38.1233 75.1209 38.3321 74.6957 38.6448 74.3324C38.9575 73.9691 39.3638 73.6952 39.8635 73.5109C40.3633 73.3265 40.8232 73.2808 41.2435 73.3737C41.6637 73.4666 42.0224 73.6825 42.3195 74.0212C42.6188 74.3591 42.8331 74.8022 42.9623 75.3507C43.0916 75.8991 43.1035 76.4157 42.998 76.9004C42.8948 77.3843 42.6868 77.8079 42.374 78.1713C42.0613 78.5346 41.6551 78.8084 41.1553 78.9928ZM40.9258 77.988C41.1968 77.888 41.4051 77.7272 41.5509 77.5057C41.6961 77.2818 41.7822 77.0221 41.8091 76.7266C41.8383 76.4303 41.8148 76.1209 41.7388 75.7983C41.6622 75.4734 41.5475 75.1964 41.3945 74.9673C41.2432 74.7351 41.058 74.5742 40.839 74.4847C40.6199 74.3952 40.3749 74.4004 40.1039 74.5004C39.8263 74.6028 39.6138 74.7664 39.4663 74.9911C39.3211 75.215 39.2342 75.4762 39.2056 75.7748C39.1787 76.0703 39.2035 76.3805 39.28 76.7054C39.3561 77.028 39.4695 77.3042 39.6202 77.5342C39.7732 77.7633 39.9592 77.9226 40.1782 78.0121C40.399 78.0984 40.6482 78.0904 40.9258 77.988ZM44.1446 70.0831L45.8127 77.1619L44.6066 77.6069L42.9385 70.528L44.1446 70.0831ZM48.5507 76.2683C48.2265 76.3879 47.9203 76.4357 47.6322 76.4118C47.3457 76.3847 47.099 76.2804 46.8921 76.0987C46.6873 75.9163 46.544 75.6511 46.462 75.3031C46.3914 75.0036 46.3863 74.7362 46.4468 74.501C46.5072 74.2658 46.6158 74.0554 46.7724 73.8699C46.9291 73.6844 47.1159 73.5191 47.3327 73.3739C47.5513 73.2257 47.7817 73.0918 48.0239 72.9724C48.3162 72.8295 48.5526 72.711 48.7332 72.6168C48.9133 72.5203 49.039 72.4289 49.1103 72.3424C49.1834 72.2529 49.2058 72.1482 49.1776 72.0283L49.1727 72.0076C49.1113 71.7472 48.9894 71.573 48.8069 71.4851C48.6244 71.3971 48.3933 71.4048 48.1134 71.508C47.818 71.617 47.5994 71.7703 47.4577 71.9678C47.3181 72.1646 47.2398 72.365 47.2228 72.5692L46.0576 72.8187C46.0704 72.4633 46.1535 72.1396 46.3067 71.8477C46.4595 71.5534 46.6708 71.2976 46.9407 71.0803C47.21 70.8607 47.5235 70.6849 47.8811 70.553C48.1277 70.4621 48.3801 70.4015 48.6386 70.3713C48.897 70.341 49.1436 70.3578 49.3783 70.4215C49.6125 70.4828 49.8183 70.6085 49.9959 70.7985C50.1756 70.9876 50.307 71.2585 50.3901 71.6111L51.2275 75.1643L50.068 75.592L49.8962 74.8627L49.8562 74.8775C49.8177 75.052 49.747 75.2283 49.6441 75.4066C49.5429 75.5816 49.4016 75.7452 49.2202 75.8973C49.0404 76.0463 48.8173 76.1699 48.5507 76.2683ZM48.6473 75.2333C48.8894 75.144 49.0876 75.017 49.2419 74.8524C49.3957 74.6854 49.5008 74.5014 49.5572 74.3002C49.6159 74.0983 49.6221 73.8994 49.5759 73.7035L49.4285 73.0779C49.3983 73.1241 49.341 73.1778 49.2564 73.239C49.1741 73.2995 49.0799 73.3605 48.9737 73.4222C48.8675 73.484 48.7619 73.543 48.6569 73.5992C48.5519 73.6555 48.4607 73.7042 48.3835 73.7452C48.2096 73.8369 48.0583 73.9378 47.9297 74.0478C47.8011 74.1579 47.708 74.2799 47.6502 74.4139C47.592 74.5456 47.5818 74.6921 47.6198 74.8534C47.6741 75.0839 47.7962 75.2279 47.986 75.2856C48.1759 75.3433 48.3963 75.3259 48.6473 75.2333ZM53.106 67.9455L52.8526 66.8705L58.2966 64.8621L58.5499 65.9371L56.4409 66.7151L57.8558 72.719L56.6297 73.1713L55.2149 67.1674L53.106 67.9455ZM62.5087 71.1151C61.9956 71.3044 61.5264 71.3573 61.1012 71.2737C60.6776 71.1871 60.3178 70.9767 60.0218 70.6426C59.7252 70.3061 59.5115 69.8603 59.3806 69.3049C59.2519 68.7588 59.2389 68.2426 59.3416 67.7564C59.446 67.2671 59.6521 66.8404 59.9598 66.4764C60.267 66.1101 60.6649 65.8368 61.1536 65.6566C61.469 65.5402 61.7791 65.4834 62.0839 65.4861C62.3904 65.4858 62.6772 65.5553 62.9442 65.6947C63.2135 65.8333 63.4502 66.0491 63.6544 66.3419C63.8581 66.6325 64.0148 67.0105 64.1244 67.4759L64.2149 67.8596L60.0203 69.407L59.8216 68.5637L62.86 67.4427C62.8013 67.2039 62.7011 67.0092 62.5594 66.8586C62.4172 66.7057 62.2455 66.6075 62.0446 66.5639C61.8458 66.5195 61.6309 66.5399 61.3999 66.6251C61.1534 66.7161 60.9515 66.8582 60.7942 67.0515C60.6364 67.2424 60.529 67.4574 60.4718 67.6964C60.4163 67.9322 60.4155 68.1692 60.4692 68.4074L60.6427 69.1436C60.7154 69.4524 60.8323 69.6973 60.9933 69.8784C61.1537 70.0572 61.3455 70.1692 61.5686 70.2147C61.7912 70.2578 62.0336 70.231 62.2957 70.1343C62.4711 70.0695 62.624 69.9856 62.7542 69.8825C62.8838 69.777 62.9889 69.6544 63.0694 69.5145C63.1499 69.3746 63.1992 69.2199 63.2172 69.0504L64.3742 68.7663C64.3759 69.1013 64.3039 69.4209 64.1584 69.7251C64.0144 70.0262 63.803 70.297 63.5242 70.5376C63.2448 70.776 62.9063 70.9685 62.5087 71.1151ZM68.9043 64.3976L67.8342 64.9277C67.7759 64.8239 67.696 64.7357 67.5944 64.663C67.4949 64.5894 67.3735 64.5453 67.23 64.5306C67.0865 64.516 66.9215 64.543 66.7349 64.6119C66.4839 64.7044 66.2862 64.8387 66.1418 65.0148C65.9996 65.1899 65.9508 65.367 65.9954 65.5459C66.0296 65.7011 66.1136 65.8066 66.2474 65.8624C66.3835 65.9174 66.5888 65.9281 66.8633 65.8944L67.7819 65.766C68.2916 65.6956 68.6918 65.7346 68.9827 65.8828C69.2757 66.0301 69.4681 66.2935 69.56 66.6729C69.6365 67.0078 69.6116 67.3376 69.4853 67.6622C69.3607 67.9837 69.1508 68.2765 68.8558 68.5406C68.5607 68.8048 68.2 69.0155 67.7735 69.1728C67.1472 69.4039 66.6109 69.454 66.1648 69.323C65.7182 69.1897 65.4007 68.8924 65.2122 68.4309L66.3606 67.8795C66.4704 68.0995 66.6263 68.2386 66.8283 68.2968C67.0304 68.355 67.2702 68.3329 67.5478 68.2305C67.8343 68.1248 68.0498 67.9789 68.1943 67.7928C68.341 67.606 68.3932 67.4227 68.3508 67.2429C68.315 67.0909 68.2287 66.9862 68.0921 66.9289C67.9577 66.8708 67.7665 66.8586 67.5186 66.8925L66.6009 67.0244C66.0851 67.0995 65.6798 67.0549 65.3852 66.8906C65.0901 66.724 64.898 66.4467 64.809 66.0587C64.7296 65.7324 64.7484 65.4174 64.8651 65.1138C64.9836 64.8071 65.1828 64.5308 65.4628 64.2847C65.7445 64.0355 66.0897 63.8355 66.4983 63.6848C67.098 63.4635 67.6012 63.4219 68.008 63.5599C68.4169 63.697 68.7157 63.9763 68.9043 64.3976ZM70.4671 60.3722L72.1352 67.451L70.9291 67.896L69.261 60.8171L70.4671 60.3722ZM74.8732 66.5574C74.549 66.677 74.2428 66.7249 73.9547 66.7009C73.6682 66.6738 73.4215 66.5695 73.2146 66.3878C73.0098 66.2054 72.8665 65.9402 72.7845 65.5923C72.7139 65.2927 72.7088 65.0253 72.7693 64.7901C72.8297 64.5549 72.9383 64.3446 73.0949 64.159C73.2516 63.9735 73.4384 63.8082 73.6552 63.663C73.8738 63.5148 74.1042 63.3809 74.3464 63.2615C74.6387 63.1186 74.8751 63.0001 75.0557 62.9059C75.2358 62.8095 75.3615 62.718 75.4328 62.6315C75.5059 62.542 75.5283 62.4373 75.5001 62.3175L75.4952 62.2967C75.4338 62.0363 75.3119 61.8622 75.1294 61.7742C74.9469 61.6862 74.7158 61.6939 74.4359 61.7971C74.1405 61.9061 73.9219 62.0594 73.7802 62.2569C73.6406 62.4537 73.5623 62.6541 73.5453 62.8583L72.3801 63.1078C72.3929 62.7524 72.4759 62.4288 72.6292 62.1368C72.782 61.8425 72.9933 61.5867 73.2632 61.3694C73.5325 61.1498 73.846 60.9741 74.2036 60.8421C74.4502 60.7512 74.7026 60.6906 74.9611 60.6604C75.2195 60.6301 75.4661 60.6469 75.7008 60.7106C75.9349 60.772 76.1408 60.8976 76.3183 61.0876C76.4981 61.2768 76.6295 61.5476 76.7126 61.9002L77.55 65.4534L76.3905 65.8812L76.2187 65.1518L76.1787 65.1666C76.1402 65.3411 76.0695 65.5175 75.9666 65.6957C75.8654 65.8708 75.7241 66.0343 75.5427 66.1864C75.3629 66.3354 75.1398 66.4591 74.8732 66.5574ZM74.9698 65.5224C75.2119 65.4331 75.4101 65.3061 75.5644 65.1415C75.7182 64.9746 75.8233 64.7905 75.8797 64.5894C75.9383 64.3874 75.9446 64.1885 75.8984 63.9926L75.751 63.367C75.7208 63.4132 75.6635 63.4669 75.5789 63.5282C75.4966 63.5886 75.4024 63.6497 75.2962 63.7114C75.19 63.7731 75.0844 63.8321 74.9794 63.8883C74.8744 63.9446 74.7832 63.9933 74.706 64.0343C74.532 64.126 74.3808 64.2269 74.2522 64.337C74.1236 64.447 74.0305 64.569 73.9727 64.703C73.9145 64.8348 73.9043 64.9813 73.9423 65.1426C73.9966 65.373 74.1187 65.5171 74.3085 65.5748C74.4984 65.6325 74.7188 65.615 74.9698 65.5224Z" fill="white"/>
<rect width="19.5064" height="13.0043" rx="5" transform="matrix(0.938191 -0.346117 0.22937 0.973339 29.0469 107.788)" fill="url(#paint2_radial_270506_8213)"/>
<path fill-rule="evenodd" clip-rule="evenodd" d="M38.2268 104.538L36.9729 108.596C36.9729 108.596 38.4683 111.19 38.2396 113.971L41.1499 116.942L42.3064 112.471C42.3064 112.471 41.0058 110.704 41.0397 107.096C41.0397 107.096 38.2268 104.538 38.2268 104.538Z" stroke="#C7C7B6" stroke-width="1.3" stroke-linejoin="bevel"/>
<path d="M29.8918 111.374L37.0087 108.748" stroke="#C7C7B6" stroke-width="1.3" stroke-linejoin="bevel"/>
<path d="M40.872 107.323L48.1923 104.622" stroke="#C7C7B6" stroke-width="1.3" stroke-linejoin="bevel"/>
<path d="M31.0846 116.437L38.2016 113.811" stroke="#C7C7B6" stroke-width="1.3" stroke-linejoin="bevel"/>
<path d="M42.0648 112.386L49.3851 109.685" stroke="#C7C7B6" stroke-width="1.3" stroke-linejoin="bevel"/>
<defs>
<linearGradient id="paint0_linear_270506_8213" x1="32.7451" y1="-17.173" x2="52.3193" y2="135.293" gradientUnits="userSpaceOnUse">
<stop stop-color="#E23B51"/>
<stop offset="1" stop-color="#8A3B45"/>
</linearGradient>
<linearGradient id="paint1_linear_270506_8213" x1="32.7451" y1="-17.1731" x2="52.3194" y2="135.293" gradientUnits="userSpaceOnUse">
<stop stop-color="#E23B51"/>
<stop offset="1" stop-color="#8A3B45"/>
</linearGradient>
<radialGradient id="paint2_radial_270506_8213" cx="0" cy="0" r="1" gradientUnits="userSpaceOnUse" gradientTransform="translate(11.2016 4.73701) rotate(141.302) scale(13.2229 13.1227)">
<stop stop-color="white"/>
<stop offset="1" stop-color="#DDDCDA"/>
</radialGradient>
</defs>
</svg>
