<svg width="152" height="55" viewBox="0 0 152 55" fill="none" xmlns="http://www.w3.org/2000/svg">
<rect x="0.5" y="0.608398" width="151.5" height="54" rx="5" fill="#333333"/>
<path d="M48.1212 25.9889L28.4548 14.7365C28.1681 14.5693 27.8422 14.4812 27.5103 14.4812C27.1784 14.4812 26.8525 14.5693 26.5658 14.7365C26.2833 14.8985 26.0489 15.1326 25.8867 15.4149C25.7244 15.6972 25.6401 16.0176 25.6423 16.3432V38.8736C25.6414 39.1989 25.7268 39.5186 25.8899 39.8C26.053 40.0815 26.2878 40.3146 26.5705 40.4756C26.8572 40.6428 27.1831 40.7309 27.515 40.7309C27.8469 40.7309 28.1728 40.6428 28.4595 40.4756L48.1212 29.2256C48.4116 29.0664 48.6539 28.8321 48.8226 28.5472C48.9914 28.2623 49.0804 27.9372 49.0804 27.6061C49.0804 27.2749 48.9914 26.9499 48.8226 26.6649C48.6539 26.38 48.4116 26.1457 48.1212 25.9865V25.9889ZM38.7673 28.9338L40.9845 31.151L30.6134 37.0877L38.7673 28.9338ZM30.6111 18.1279L40.9857 24.0658L38.7673 26.283L30.6111 18.1279ZM42.6708 30.1865L40.0927 27.6084L42.6708 25.0303L47.1744 27.6084L42.6708 30.1865Z" fill="white"/>
<path d="M61.8583 15.4599H63.5488C64.5988 15.4599 65.3968 15.7574 65.9428 16.3524C66.4958 16.9474 66.7723 17.7909 66.7723 18.8829C66.7723 19.9749 66.4958 20.8289 65.9428 21.4449C65.3968 22.0539 64.6093 22.3584 63.5803 22.3584H61.8583V15.4599ZM63.4858 21.7179C64.3118 21.7179 64.9313 21.4729 65.3443 20.9829C65.7643 20.4859 65.9743 19.7859 65.9743 18.8829C65.9743 17.9939 65.7643 17.3079 65.3443 16.8249C64.9313 16.3419 64.3118 16.1004 63.4858 16.1004H62.6353V21.7179H63.4858Z" fill="white"/>
<path d="M70.1668 22.4844C69.7468 22.4844 69.3583 22.3794 69.0013 22.1694C68.6443 21.9524 68.3573 21.6444 68.1403 21.2454C67.9303 20.8394 67.8253 20.3634 67.8253 19.8174C67.8253 19.2714 67.9303 18.7954 68.1403 18.3894C68.3573 17.9834 68.6443 17.6754 69.0013 17.4654C69.3583 17.2484 69.7468 17.1399 70.1668 17.1399C70.5868 17.1399 70.9753 17.2484 71.3323 17.4654C71.6893 17.6754 71.9728 17.9834 72.1828 18.3894C72.3998 18.7954 72.5083 19.2714 72.5083 19.8174C72.5083 20.3634 72.3998 20.8394 72.1828 21.2454C71.9728 21.6444 71.6893 21.9524 71.3323 22.1694C70.9753 22.3794 70.5868 22.4844 70.1668 22.4844ZM70.1668 21.8439C70.4678 21.8439 70.7338 21.7599 70.9648 21.5919C71.2028 21.4239 71.3883 21.1859 71.5213 20.8779C71.6543 20.5699 71.7208 20.2164 71.7208 19.8174C71.7208 19.4184 71.6543 19.0649 71.5213 18.7569C71.3883 18.4489 71.2028 18.2109 70.9648 18.0429C70.7338 17.8679 70.4678 17.7804 70.1668 17.7804C69.8658 17.7804 69.5963 17.8679 69.3583 18.0429C69.1273 18.2109 68.9453 18.4489 68.8123 18.7569C68.6863 19.0649 68.6233 19.4184 68.6233 19.8174C68.6233 20.4264 68.7668 20.9164 69.0538 21.2874C69.3408 21.6584 69.7118 21.8439 70.1668 21.8439Z" fill="white"/>
<path d="M73.2234 17.2659H74.0109L74.8089 20.3004L74.9034 20.7519C75.0014 21.1719 75.0714 21.4904 75.1134 21.7074H75.1554C75.2884 21.1614 75.4074 20.6924 75.5124 20.3004L76.3314 17.2659H77.0979L77.9274 20.3004L78.2844 21.7074H78.3264L78.6624 20.3004L79.4394 17.2659H80.1744L78.7884 22.3584H77.8434L77.0664 19.5129L76.8669 18.6834C76.8529 18.6274 76.8039 18.4174 76.7199 18.0534H76.6779C76.5239 18.7464 76.4014 19.2399 76.3104 19.5339L75.5544 22.3584H74.6619L73.2234 17.2659Z" fill="white"/>
<path d="M81.3185 17.2659H81.9485L82.0115 18.0219H82.043C82.323 17.7419 82.596 17.5249 82.862 17.3709C83.135 17.2169 83.4325 17.1399 83.7545 17.1399C84.2865 17.1399 84.6785 17.3079 84.9305 17.6439C85.1825 17.9729 85.3085 18.4664 85.3085 19.1244V22.3584H84.542V19.2189C84.542 18.7289 84.4615 18.3719 84.3005 18.1479C84.1465 17.9239 83.891 17.8119 83.534 17.8119C83.282 17.8119 83.0475 17.8784 82.8305 18.0114C82.6135 18.1374 82.3615 18.3439 82.0745 18.6309V22.3584H81.3185V17.2659Z" fill="white"/>
<path d="M87.8492 22.4844C87.5622 22.4844 87.3522 22.3969 87.2192 22.2219C87.0862 22.0399 87.0197 21.7739 87.0197 21.4239V14.8614H87.7757V21.4869C87.7757 21.6059 87.7967 21.6969 87.8387 21.7599C87.8877 21.8159 87.9472 21.8439 88.0172 21.8439C88.0732 21.8439 88.1362 21.8369 88.2062 21.8229L88.3112 22.4109C88.1782 22.4599 88.0242 22.4844 87.8492 22.4844Z" fill="white"/>
<path d="M91.5872 22.4844C91.1672 22.4844 90.7787 22.3794 90.4217 22.1694C90.0647 21.9524 89.7777 21.6444 89.5607 21.2454C89.3507 20.8394 89.2457 20.3634 89.2457 19.8174C89.2457 19.2714 89.3507 18.7954 89.5607 18.3894C89.7777 17.9834 90.0647 17.6754 90.4217 17.4654C90.7787 17.2484 91.1672 17.1399 91.5872 17.1399C92.0072 17.1399 92.3957 17.2484 92.7527 17.4654C93.1097 17.6754 93.3932 17.9834 93.6032 18.3894C93.8202 18.7954 93.9287 19.2714 93.9287 19.8174C93.9287 20.3634 93.8202 20.8394 93.6032 21.2454C93.3932 21.6444 93.1097 21.9524 92.7527 22.1694C92.3957 22.3794 92.0072 22.4844 91.5872 22.4844ZM91.5872 21.8439C91.8882 21.8439 92.1542 21.7599 92.3852 21.5919C92.6232 21.4239 92.8087 21.1859 92.9417 20.8779C93.0747 20.5699 93.1412 20.2164 93.1412 19.8174C93.1412 19.4184 93.0747 19.0649 92.9417 18.7569C92.8087 18.4489 92.6232 18.2109 92.3852 18.0429C92.1542 17.8679 91.8882 17.7804 91.5872 17.7804C91.2862 17.7804 91.0167 17.8679 90.7787 18.0429C90.5477 18.2109 90.3657 18.4489 90.2327 18.7569C90.1067 19.0649 90.0437 19.4184 90.0437 19.8174C90.0437 20.4264 90.1872 20.9164 90.4742 21.2874C90.7612 21.6584 91.1322 21.8439 91.5872 21.8439Z" fill="white"/>
<path d="M96.3266 22.4844C95.8926 22.4844 95.5356 22.3584 95.2556 22.1064C94.9756 21.8544 94.8355 21.5009 94.8355 21.0459C94.8355 20.4929 95.0876 20.0694 95.5916 19.7754C96.0956 19.4744 96.9006 19.2644 98.0066 19.1454C98.0066 18.7464 97.9226 18.4209 97.7546 18.1689C97.5936 17.9099 97.3136 17.7804 96.9146 17.7804C96.4315 17.7804 95.9171 17.9659 95.3711 18.3369L95.0666 17.8119C95.7386 17.3639 96.3966 17.1399 97.0406 17.1399C97.6286 17.1399 98.0626 17.3254 98.3426 17.6964C98.6226 18.0604 98.7626 18.5644 98.7626 19.2084V22.3584H98.1326L98.0695 21.7389H98.0381C97.4361 22.2359 96.8656 22.4844 96.3266 22.4844ZM96.5261 21.8649C96.7711 21.8649 97.009 21.8089 97.2401 21.6969C97.4781 21.5779 97.7336 21.3959 98.0066 21.1509V19.6599C97.1316 19.7649 96.5086 19.9259 96.1376 20.1429C95.7736 20.3599 95.5916 20.6469 95.5916 21.0039C95.5916 21.2909 95.6791 21.5079 95.854 21.6549C96.0291 21.7949 96.2531 21.8649 96.5261 21.8649Z" fill="white"/>
<path d="M102.143 22.4844C101.499 22.4844 100.988 22.2499 100.61 21.7809C100.239 21.3119 100.054 20.6574 100.054 19.8174C100.054 19.2854 100.155 18.8164 100.358 18.4104C100.561 18.0044 100.831 17.6929 101.167 17.4759C101.51 17.2519 101.877 17.1399 102.269 17.1399C102.542 17.1399 102.787 17.1889 103.004 17.2869C103.221 17.3849 103.459 17.5354 103.718 17.7384L103.687 16.8564V14.8614H104.443V22.3584H103.813L103.75 21.7389H103.718C103.501 21.9629 103.256 22.1449 102.983 22.2849C102.717 22.4179 102.437 22.4844 102.143 22.4844ZM102.311 21.8334C102.556 21.8334 102.787 21.7739 103.004 21.6549C103.228 21.5359 103.456 21.3539 103.687 21.1089V18.3474C103.463 18.1514 103.246 18.0114 103.036 17.9274C102.826 17.8364 102.609 17.7909 102.385 17.7909C102.098 17.7909 101.835 17.8784 101.597 18.0534C101.366 18.2284 101.181 18.4699 101.041 18.7779C100.908 19.0859 100.841 19.4324 100.841 19.8174C100.841 20.4474 100.967 20.9409 101.219 21.2979C101.478 21.6549 101.842 21.8334 102.311 21.8334Z" fill="white"/>
<path d="M107.561 17.2659H108.348L109.356 20.2374L109.839 21.7284H109.881L110.364 20.2374L111.372 17.2659H112.128L110.301 22.3584H109.419L107.561 17.2659Z" fill="white"/>
<path d="M113.147 17.2659H113.903V22.3584H113.147V17.2659ZM113.535 16.1739C113.381 16.1739 113.255 16.1249 113.157 16.0269C113.059 15.9289 113.01 15.7994 113.01 15.6384C113.01 15.4844 113.059 15.3619 113.157 15.2709C113.255 15.1729 113.381 15.1239 113.535 15.1239C113.689 15.1239 113.815 15.1729 113.913 15.2709C114.011 15.3619 114.06 15.4844 114.06 15.6384C114.06 15.7994 114.011 15.9289 113.913 16.0269C113.815 16.1249 113.689 16.1739 113.535 16.1739Z" fill="white"/>
<path d="M116.845 22.4844C116.411 22.4844 116.054 22.3584 115.774 22.1064C115.494 21.8544 115.354 21.5009 115.354 21.0459C115.354 20.4929 115.606 20.0694 116.11 19.7754C116.614 19.4744 117.419 19.2644 118.525 19.1454C118.525 18.7464 118.441 18.4209 118.273 18.1689C118.112 17.9099 117.832 17.7804 117.433 17.7804C116.95 17.7804 116.435 17.9659 115.889 18.3369L115.585 17.8119C116.257 17.3639 116.915 17.1399 117.559 17.1399C118.147 17.1399 118.581 17.3254 118.861 17.6964C119.141 18.0604 119.281 18.5644 119.281 19.2084V22.3584H118.651L118.588 21.7389H118.556C117.954 22.2359 117.384 22.4844 116.845 22.4844ZM117.044 21.8649C117.289 21.8649 117.527 21.8089 117.758 21.6969C117.996 21.5779 118.252 21.3959 118.525 21.1509V19.6599C117.65 19.7649 117.027 19.9259 116.656 20.1429C116.292 20.3599 116.11 20.6469 116.11 21.0039C116.11 21.2909 116.197 21.5079 116.372 21.6549C116.547 21.7949 116.771 21.8649 117.044 21.8649Z" fill="white"/>
<path d="M65.7928 39.7704C64.9738 39.7704 64.2403 39.5949 63.5923 39.2439C62.9533 38.8929 62.4493 38.3799 62.0803 37.7049C61.7113 37.0209 61.5268 36.2019 61.5268 35.2479C61.5268 34.3029 61.7158 33.4839 62.0938 32.7909C62.4718 32.0889 62.9803 31.5534 63.6193 31.1844C64.2673 30.8154 64.9873 30.6309 65.7793 30.6309C66.8503 30.6309 67.7638 31.0089 68.5198 31.7649L67.5478 32.9529C67.2958 32.7189 67.0348 32.5434 66.7648 32.4264C66.5038 32.3004 66.1978 32.2374 65.8468 32.2374C65.1178 32.2374 64.5328 32.5029 64.0918 33.0339C63.6508 33.5559 63.4303 34.2714 63.4303 35.1804C63.4303 36.1344 63.6463 36.8724 64.0783 37.3944C64.5103 37.9074 65.1448 38.1639 65.9818 38.1639C66.1798 38.1639 66.3733 38.1369 66.5623 38.0829C66.7513 38.0289 66.9043 37.9569 67.0213 37.8669V36.2199H65.4958V34.7079H68.6683V38.7039C68.3443 39.0189 67.9303 39.2754 67.4263 39.4734C66.9223 39.6714 66.3778 39.7704 65.7928 39.7704Z" fill="white"/>
<path d="M73.2012 39.7704C72.6252 39.7704 72.0897 39.6309 71.5947 39.3519C71.1087 39.0729 70.7172 38.6679 70.4202 38.1369C70.1232 37.6059 69.9747 36.9849 69.9747 36.2739C69.9747 35.5539 70.1232 34.9284 70.4202 34.3974C70.7172 33.8664 71.1087 33.4614 71.5947 33.1824C72.0897 32.9034 72.6252 32.7639 73.2012 32.7639C73.7682 32.7639 74.2992 32.9034 74.7942 33.1824C75.2892 33.4614 75.6852 33.8709 75.9822 34.4109C76.2792 34.9419 76.4277 35.5629 76.4277 36.2739C76.4277 36.9849 76.2792 37.6059 75.9822 38.1369C75.6852 38.6679 75.2892 39.0729 74.7942 39.3519C74.2992 39.6309 73.7682 39.7704 73.2012 39.7704ZM73.2012 38.2719C73.6242 38.2719 73.9527 38.0964 74.1867 37.7454C74.4207 37.3854 74.5377 36.8949 74.5377 36.2739C74.5377 35.6529 74.4207 35.1624 74.1867 34.8024C73.9527 34.4424 73.6242 34.2624 73.2012 34.2624C72.7692 34.2624 72.4362 34.4424 72.2022 34.8024C71.9772 35.1624 71.8647 35.6529 71.8647 36.2739C71.8647 36.8949 71.9772 37.3854 72.2022 37.7454C72.4362 38.0964 72.7692 38.2719 73.2012 38.2719Z" fill="white"/>
<path d="M80.6631 39.7704C80.0871 39.7704 79.5516 39.6309 79.0566 39.3519C78.5706 39.0729 78.1791 38.6679 77.8821 38.1369C77.5851 37.6059 77.4366 36.9849 77.4366 36.2739C77.4366 35.5539 77.5851 34.9284 77.8821 34.3974C78.1791 33.8664 78.5706 33.4614 79.0566 33.1824C79.5516 32.9034 80.0871 32.7639 80.6631 32.7639C81.2301 32.7639 81.7611 32.9034 82.2561 33.1824C82.7511 33.4614 83.1471 33.8709 83.4441 34.4109C83.7411 34.9419 83.8896 35.5629 83.8896 36.2739C83.8896 36.9849 83.7411 37.6059 83.4441 38.1369C83.1471 38.6679 82.7511 39.0729 82.2561 39.3519C81.7611 39.6309 81.2301 39.7704 80.6631 39.7704ZM80.6631 38.2719C81.0861 38.2719 81.4146 38.0964 81.6486 37.7454C81.8826 37.3854 81.9996 36.8949 81.9996 36.2739C81.9996 35.6529 81.8826 35.1624 81.6486 34.8024C81.4146 34.4424 81.0861 34.2624 80.6631 34.2624C80.2311 34.2624 79.8981 34.4424 79.6641 34.8024C79.4391 35.1624 79.3266 35.6529 79.3266 36.2739C79.3266 36.8949 79.4391 37.3854 79.6641 37.7454C79.8981 38.0964 80.2311 38.2719 80.6631 38.2719Z" fill="white"/>
<path d="M87.666 42.4839C86.838 42.4839 86.163 42.3399 85.641 42.0519C85.128 41.7639 84.8715 41.3409 84.8715 40.7829C84.8715 40.2249 85.191 39.7659 85.83 39.4059V39.3519C85.425 39.0909 85.2225 38.7129 85.2225 38.2179C85.2225 37.9839 85.29 37.7544 85.425 37.5294C85.569 37.3044 85.749 37.1199 85.965 36.9759V36.9219C85.704 36.7419 85.488 36.4989 85.317 36.1929C85.155 35.8869 85.074 35.5494 85.074 35.1804C85.074 34.6764 85.1955 34.2444 85.4385 33.8844C85.6905 33.5154 86.0235 33.2364 86.4375 33.0474C86.8515 32.8584 87.3015 32.7639 87.7875 32.7639C88.1295 32.7639 88.4715 32.8179 88.8135 32.9259H91.23V34.2759H90.1095C90.1905 34.3839 90.258 34.5279 90.312 34.7079C90.366 34.8789 90.393 35.0544 90.393 35.2344C90.393 35.9634 90.15 36.5214 89.664 36.9084C89.178 37.2954 88.5525 37.4889 87.7875 37.4889C87.5085 37.4889 87.2295 37.4439 86.9505 37.3539C86.8605 37.4349 86.793 37.5159 86.748 37.5969C86.703 37.6689 86.6805 37.7679 86.6805 37.8939C86.6805 38.0649 86.757 38.1954 86.91 38.2854C87.072 38.3754 87.3375 38.4204 87.7065 38.4204H88.827C89.655 38.4204 90.2805 38.5554 90.7035 38.8254C91.1265 39.0954 91.338 39.5229 91.338 40.1079C91.338 40.5579 91.185 40.9629 90.879 41.3229C90.582 41.6919 90.1545 41.9754 89.5965 42.1734C89.0475 42.3804 88.404 42.4839 87.666 42.4839ZM87.7875 36.3684C88.0845 36.3684 88.323 36.2649 88.503 36.0579C88.692 35.8509 88.7865 35.5584 88.7865 35.1804C88.7865 34.8114 88.692 34.5279 88.503 34.3299C88.323 34.1229 88.0845 34.0194 87.7875 34.0194C87.4905 34.0194 87.252 34.1229 87.072 34.3299C86.892 34.5279 86.802 34.8114 86.802 35.1804C86.802 35.5494 86.892 35.8419 87.072 36.0579C87.261 36.2649 87.4995 36.3684 87.7875 36.3684ZM87.9495 41.3229C88.4175 41.3229 88.8045 41.2329 89.1105 41.0529C89.4165 40.8819 89.5695 40.6704 89.5695 40.4184C89.5695 40.2024 89.484 40.0539 89.313 39.9729C89.142 39.8919 88.872 39.8514 88.503 39.8514H87.7335C87.3375 39.8514 87.0315 39.8199 86.8155 39.7569C86.5365 39.9819 86.397 40.2249 86.397 40.4859C86.397 40.7559 86.5365 40.9629 86.8155 41.1069C87.0945 41.2509 87.4725 41.3229 87.9495 41.3229Z" fill="white"/>
<path d="M94.1767 39.7704C93.5737 39.7704 93.1372 39.5859 92.8672 39.2169C92.5972 38.8479 92.4622 38.3259 92.4622 37.6509V30.1179H94.2982V37.7319C94.2982 37.9209 94.3342 38.0604 94.4062 38.1504C94.4782 38.2314 94.5592 38.2719 94.6492 38.2719C94.7392 38.2719 94.8202 38.2629 94.8922 38.2449L95.1217 39.6219C94.8607 39.7209 94.5457 39.7704 94.1767 39.7704Z" fill="white"/>
<path d="M101.794 35.9634C101.794 36.3054 101.767 36.5844 101.713 36.8004H97.5821C97.6721 37.3314 97.8881 37.7229 98.2301 37.9749C98.5811 38.2269 98.9861 38.3529 99.4451 38.3529C99.9221 38.3529 100.417 38.2044 100.93 37.9074L101.538 39.0279C101.205 39.2619 100.831 39.4464 100.417 39.5814C100.012 39.7074 99.6071 39.7704 99.2021 39.7704C98.5721 39.7704 98.0006 39.6309 97.4876 39.3519C96.9836 39.0729 96.5831 38.6679 96.2861 38.1369C95.9981 37.6059 95.8541 36.9849 95.8541 36.2739C95.8541 35.5719 95.9981 34.9554 96.2861 34.4244C96.5831 33.8934 96.9701 33.4839 97.4471 33.1959C97.9241 32.9079 98.4326 32.7639 98.9726 32.7639C99.8816 32.7639 100.579 33.0609 101.065 33.6549C101.551 34.2399 101.794 35.0094 101.794 35.9634ZM100.215 35.5719C100.215 35.1399 100.116 34.8024 99.9176 34.5594C99.7196 34.3074 99.4181 34.1814 99.0131 34.1814C98.6801 34.1814 98.3831 34.2984 98.1221 34.5324C97.8701 34.7574 97.6991 35.1039 97.6091 35.5719H100.215Z" fill="white"/>
<path d="M106.045 30.7929H108.988C110.05 30.7929 110.891 31.0134 111.512 31.4544C112.142 31.8864 112.457 32.5974 112.457 33.5874C112.457 34.5594 112.138 35.2929 111.499 35.7879C110.86 36.2829 110.041 36.5304 109.042 36.5304H107.894V39.6084H106.045V30.7929ZM108.92 35.0589C110.072 35.0589 110.648 34.5684 110.648 33.5874C110.648 33.1194 110.5 32.7819 110.203 32.5749C109.915 32.3679 109.469 32.2644 108.866 32.2644H107.894V35.0589H108.92Z" fill="white"/>
<path d="M115.6 39.7704C114.997 39.7704 114.561 39.5859 114.291 39.2169C114.021 38.8479 113.886 38.3259 113.886 37.6509V30.1179H115.722V37.7319C115.722 37.9209 115.758 38.0604 115.83 38.1504C115.902 38.2314 115.983 38.2719 116.073 38.2719C116.163 38.2719 116.244 38.2629 116.316 38.2449L116.545 39.6219C116.284 39.7209 115.969 39.7704 115.6 39.7704Z" fill="white"/>
<path d="M119.343 39.7704C118.749 39.7704 118.267 39.5814 117.898 39.2034C117.538 38.8254 117.358 38.3484 117.358 37.7724C117.358 37.0614 117.66 36.5124 118.263 36.1254C118.866 35.7294 119.833 35.4594 121.165 35.3154C121.138 34.5954 120.769 34.2354 120.058 34.2354C119.779 34.2354 119.496 34.2894 119.208 34.3974C118.92 34.5054 118.605 34.6584 118.263 34.8564L117.601 33.6414C118.546 33.0564 119.482 32.7639 120.409 32.7639C121.264 32.7639 121.912 33.0159 122.353 33.5199C122.794 34.0149 123.015 34.7574 123.015 35.7474V39.6084H121.503L121.368 38.9064H121.327C120.661 39.4824 120 39.7704 119.343 39.7704ZM119.95 38.3394C120.175 38.3394 120.378 38.2899 120.558 38.1909C120.747 38.0829 120.949 37.9254 121.165 37.7184V36.4359C120.436 36.5349 119.914 36.6834 119.599 36.8814C119.284 37.0794 119.127 37.3269 119.127 37.6239C119.127 37.8579 119.199 38.0379 119.343 38.1639C119.487 38.2809 119.689 38.3394 119.95 38.3394Z" fill="white"/>
<path d="M125.41 42.2679C125.086 42.2679 124.775 42.2229 124.478 42.1329L124.816 40.7154C125.005 40.7784 125.158 40.8099 125.275 40.8099C125.869 40.8099 126.274 40.4859 126.49 39.8379L126.598 39.4599L124.006 32.9259H125.869L126.882 35.9364C126.989 36.2514 127.115 36.6699 127.259 37.1919C127.322 37.4349 127.381 37.6464 127.435 37.8264H127.489C127.606 37.3134 127.763 36.6834 127.962 35.9364L128.839 32.9259H130.607L128.258 39.7569C127.934 40.6209 127.561 41.2554 127.138 41.6604C126.715 42.0654 126.139 42.2679 125.41 42.2679Z" fill="white"/>
</svg>
