<svg width="484" height="671" viewBox="0 0 484 671" fill="none" xmlns="http://www.w3.org/2000/svg">
<path d="M96 127.912C96 126.37 97.2498 125.12 98.7916 125.12C99.3055 125.12 99.7221 125.537 99.7221 126.051V147.267C99.7221 147.781 99.3055 148.197 98.7916 148.197C97.2498 148.197 96 146.947 96 145.406V127.912Z" fill="#EB3850"/>
<path d="M96 168.296C96 167.063 96.9999 166.063 98.2333 166.063H98.9777C99.3888 166.063 99.7221 166.396 99.7221 166.808V205.517C99.7221 205.928 99.3888 206.262 98.9777 206.262H98.2333C96.9999 206.262 96 205.262 96 204.028V168.296Z" fill="#EB3850"/>
<path d="M96 221.894C96 220.661 96.9999 219.661 98.2333 219.661H98.9777C99.3888 219.661 99.7221 219.994 99.7221 220.406V259.115C99.7221 259.526 99.3888 259.86 98.9777 259.86H98.2333C96.9999 259.86 96 258.86 96 257.626V221.894Z" fill="#EB3850"/>
<path d="M393.022 184.674C393.022 184.262 393.356 183.929 393.767 183.929C395 183.929 396 184.929 396 186.162V247.949C396 249.182 395 250.182 393.767 250.182C393.356 250.182 393.022 249.849 393.022 249.438V184.674Z" fill="#EB3850"/>
<path fill-rule="evenodd" clip-rule="evenodd" d="M351.335 47.7009H140.665C116.819 47.7009 97.4888 67.0316 97.4888 90.8771V626.857C97.4888 650.703 116.819 670.033 140.665 670.033H351.335C375.181 670.033 394.511 650.703 394.511 626.857V90.8771C394.511 67.0316 375.181 47.7009 351.335 47.7009ZM106.422 90.8771C106.422 71.9652 121.753 56.6339 140.665 56.6339H162.316C164.881 57.5366 166.72 59.9813 166.72 62.8552C166.72 71.9588 174.1 79.3386 183.203 79.3386H308.052C317.156 79.3386 324.536 71.9588 324.536 62.8552C324.536 59.9813 326.375 57.5366 328.94 56.6339H351.335C370.247 56.6339 385.578 71.9652 385.578 90.8771V626.857C385.578 645.769 370.247 661.1 351.335 661.1H140.665C121.753 661.1 106.422 645.769 106.422 626.857V90.8771Z" fill="#EB3850" fill-opacity="0.15"/>
<rect x="229.251" y="64.0781" width="32.7543" height="2.97767" rx="1.48883" fill="#EB3850"/>
<circle cx="277.638" cy="65.5669" r="3.72208" fill="#EB3850"/>
<mask id="mask0_270506_7617" style="mask-type:alpha" maskUnits="userSpaceOnUse" x="106" y="56" width="280" height="606">
<path fill-rule="evenodd" clip-rule="evenodd" d="M106.468 89.0766C106.438 89.6729 106.422 90.2732 106.422 90.8772V626.857C106.422 645.769 121.753 661.101 140.665 661.101H351.335C370.247 661.101 385.578 645.769 385.578 626.857V90.8772C385.578 90.8033 385.578 90.7295 385.578 90.6558C385.458 71.8457 370.173 56.634 351.335 56.634H328.94C326.375 57.5367 324.536 59.9814 324.536 62.8553C324.536 71.9589 317.156 79.3387 308.053 79.3387H183.203C174.1 79.3387 166.72 71.9589 166.72 62.8553C166.72 59.9814 164.881 57.5367 162.316 56.634H140.665C132.132 56.634 124.328 59.755 118.333 64.9177C116.023 66.9066 113.981 69.1984 112.27 71.7315C108.892 76.7314 106.8 82.6712 106.468 89.0766Z" fill="black"/>
</mask>
<g mask="url(#mask0_270506_7617)">
<rect x="106.422" y="56.634" width="279.156" height="604.466" fill="#EB3850"/>
</g>
<g filter="url(#filter0_d_270506_7617)">
<rect x="24" y="24.7009" width="100" height="100" rx="15" fill="white"/>
</g>
<path d="M94.8334 72.7843V74.701C94.8308 79.1935 93.3761 83.5649 90.6861 87.1631C87.9962 90.7613 84.2152 93.3936 79.907 94.6674C75.5988 95.9412 70.9943 95.7883 66.7802 94.2314C62.566 92.6744 58.9681 89.797 56.5229 86.0282C54.0777 82.2594 52.9163 77.8011 53.2118 73.3183C53.5074 68.8355 55.2442 64.5683 58.1631 61.1532C61.082 57.7381 65.0267 55.358 69.4087 54.3679C73.7908 53.3779 78.3756 53.8308 82.4792 55.6593" stroke="#EB3850" stroke-width="3" stroke-linecap="round" stroke-linejoin="round"/>
<path d="M94.8333 58.0343L74 78.8885L67.75 72.6385" stroke="#EB3850" stroke-width="3" stroke-linecap="round" stroke-linejoin="round"/>
<g filter="url(#filter1_d_270506_7617)">
<rect x="359" y="280.701" width="100" height="100" rx="15" fill="white"/>
</g>
<path d="M390.25 311.951L404.979 347.305L410.208 331.909L425.604 326.68L390.25 311.951Z" stroke="#EB3850" stroke-width="3" stroke-linecap="round" stroke-linejoin="round"/>
<path d="M411.083 332.784L423.583 345.284" stroke="#EB3850" stroke-width="3" stroke-linecap="round" stroke-linejoin="round"/>
<g filter="url(#filter2_d_270506_7617)">
<rect x="48" y="508.701" width="100" height="100" rx="15" fill="white"/>
</g>
<path d="M116.417 543.305C115.353 542.241 114.089 541.396 112.699 540.82C111.308 540.244 109.818 539.947 108.313 539.947C106.807 539.947 105.317 540.244 103.926 540.82C102.536 541.396 101.272 542.241 100.208 543.305L98 545.513L95.7917 543.305C93.6423 541.156 90.7272 539.948 87.6875 539.948C84.6479 539.948 81.7327 541.156 79.5834 543.305C77.434 545.454 76.2265 548.37 76.2265 551.409C76.2265 554.449 77.434 557.364 79.5834 559.513L81.7917 561.722L98 577.93L114.208 561.722L116.417 559.513C117.481 558.449 118.326 557.186 118.902 555.795C119.478 554.405 119.775 552.914 119.775 551.409C119.775 549.904 119.478 548.414 118.902 547.023C118.326 545.633 117.481 544.369 116.417 543.305V543.305Z" stroke="#EB3850" stroke-width="3" stroke-linecap="round" stroke-linejoin="round"/>
<defs>
<filter id="filter0_d_270506_7617" x="0" y="0.700928" width="148" height="148" filterUnits="userSpaceOnUse" color-interpolation-filters="sRGB">
<feFlood flood-opacity="0" result="BackgroundImageFix"/>
<feColorMatrix in="SourceAlpha" type="matrix" values="0 0 0 0 0 0 0 0 0 0 0 0 0 0 0 0 0 0 127 0" result="hardAlpha"/>
<feOffset/>
<feGaussianBlur stdDeviation="12"/>
<feComposite in2="hardAlpha" operator="out"/>
<feColorMatrix type="matrix" values="0 0 0 0 0.898039 0 0 0 0 0.113725 0 0 0 0 0.215686 0 0 0 0.1 0"/>
<feBlend mode="normal" in2="BackgroundImageFix" result="effect1_dropShadow_270506_7617"/>
<feBlend mode="normal" in="SourceGraphic" in2="effect1_dropShadow_270506_7617" result="shape"/>
</filter>
<filter id="filter1_d_270506_7617" x="334" y="263.701" width="150" height="150" filterUnits="userSpaceOnUse" color-interpolation-filters="sRGB">
<feFlood flood-opacity="0" result="BackgroundImageFix"/>
<feColorMatrix in="SourceAlpha" type="matrix" values="0 0 0 0 0 0 0 0 0 0 0 0 0 0 0 0 0 0 127 0" result="hardAlpha"/>
<feOffset dy="8"/>
<feGaussianBlur stdDeviation="12.5"/>
<feComposite in2="hardAlpha" operator="out"/>
<feColorMatrix type="matrix" values="0 0 0 0 0.898039 0 0 0 0 0.113725 0 0 0 0 0.215686 0 0 0 0.1 0"/>
<feBlend mode="normal" in2="BackgroundImageFix" result="effect1_dropShadow_270506_7617"/>
<feBlend mode="normal" in="SourceGraphic" in2="effect1_dropShadow_270506_7617" result="shape"/>
</filter>
<filter id="filter2_d_270506_7617" x="24" y="492.701" width="148" height="148" filterUnits="userSpaceOnUse" color-interpolation-filters="sRGB">
<feFlood flood-opacity="0" result="BackgroundImageFix"/>
<feColorMatrix in="SourceAlpha" type="matrix" values="0 0 0 0 0 0 0 0 0 0 0 0 0 0 0 0 0 0 127 0" result="hardAlpha"/>
<feOffset dy="8"/>
<feGaussianBlur stdDeviation="12"/>
<feComposite in2="hardAlpha" operator="out"/>
<feColorMatrix type="matrix" values="0 0 0 0 0.898039 0 0 0 0 0.113725 0 0 0 0 0.215686 0 0 0 0.1 0"/>
<feBlend mode="normal" in2="BackgroundImageFix" result="effect1_dropShadow_270506_7617"/>
<feBlend mode="normal" in="SourceGraphic" in2="effect1_dropShadow_270506_7617" result="shape"/>
</filter>
</defs>
</svg>
