<svg width="32" height="40" viewBox="0 0 32 40" fill="none" xmlns="http://www.w3.org/2000/svg">
<g clip-path="url(#clip0_270506_8183)">
<path fill-rule="evenodd" clip-rule="evenodd" d="M30.2382 4.21815L30.2382 4.21814C30.2273 4.17611 30.1893 4.02938 30.0584 3.79651C29.9004 3.51537 29.6444 3.17889 29.2704 2.86366C28.5411 2.24893 27.3175 1.67689 25.3797 1.82308C22.134 2.06793 19.4843 3.1545 17.4893 4.63419C19.0354 6.20298 20.0973 8.01282 20.5972 9.82899C20.6671 9.74895 20.7385 9.67054 20.8114 9.59389C21.9509 8.39548 23.5515 7.51454 25.3045 7.51454H30.2424V4.22325C30.2424 4.2347 30.2419 4.23274 30.2382 4.21815ZM12.0684 39.757C12.5241 40.0859 13.081 40.2025 13.6368 40.2025H18.4397C19.1232 40.2025 19.8083 40.0261 20.3049 39.4956C20.7894 38.9781 20.9242 38.303 20.9242 37.6857V13.588C21.0507 12.6893 21.5278 11.7429 22.2608 10.972C23.1207 10.0677 24.227 9.51454 25.3045 9.51454H31.2424H32.2424V8.51454V4.22325C32.2424 3.77653 32.055 3.26681 31.8019 2.81655C31.5305 2.33367 31.1227 1.80919 30.5593 1.33439C29.414 0.369044 27.6686 -0.355272 25.2293 -0.171256C21.4686 0.112442 18.3223 1.43936 15.962 3.28821C13.615 1.49069 10.5109 0.205508 6.81323 -0.0728813C4.3745 -0.25649 2.62935 0.466168 1.48394 1.42964C0.920539 1.90355 0.512593 2.42713 0.24102 2.90933C-0.0121343 3.35882 -0.199951 3.86816 -0.199951 4.31498V8.59785V9.59785H0.800049H6.73815C7.81645 9.59785 8.923 10.1502 9.78268 11.0526C10.5159 11.8222 10.9927 12.7668 11.1188 13.6633V37.6595C11.1188 38.2773 11.2534 38.9529 11.7374 39.4709C11.8402 39.581 11.9511 39.6758 12.0684 39.757ZM11.413 9.87141C11.3533 9.80406 11.2925 9.73791 11.2307 9.67301C10.091 8.47671 8.49044 7.59785 6.73815 7.59785H1.80005V4.31498C1.80005 4.32678 1.80054 4.32488 1.8044 4.31006C1.81534 4.26805 1.85331 4.1222 1.98365 3.89078C2.14153 3.61044 2.39739 3.27475 2.77136 2.96018C3.5007 2.34669 4.72461 1.77553 6.66307 1.92147C9.85337 2.16167 12.4675 3.21316 14.4502 4.65084C12.9258 6.23337 11.8876 8.05202 11.413 9.87141ZM13.2273 38.1234C13.2254 38.1207 13.223 38.1169 13.2201 38.1117C13.2136 38.1001 13.2038 38.0792 13.1935 38.0455C13.1722 37.9754 13.1523 37.8606 13.1523 37.6857V14.1299C13.1523 13.9317 13.1409 13.7338 13.1188 13.5369V12.0906C13.1188 10.1461 14.1016 7.87021 15.9771 5.95122C17.9106 7.88491 18.9242 10.197 18.9242 12.1669V13.4615C18.902 13.6594 18.8905 13.8582 18.8905 14.0575V37.6595C18.8905 37.8351 18.8706 37.9505 18.8491 38.0212C18.8291 38.0872 18.8106 38.1055 18.8105 38.1056C18.8093 38.1068 18.8068 38.1094 18.8003 38.1135C18.7934 38.1179 18.7783 38.1264 18.7508 38.1359C18.6935 38.1559 18.5861 38.1794 18.406 38.1794H13.6033C13.4233 38.1794 13.3158 38.1559 13.2586 38.1359C13.2455 38.1314 13.2352 38.1271 13.2273 38.1234Z" fill="white"/>
</g>
<defs>
<clipPath id="clip0_270506_8183">
<rect width="32" height="40" fill="white"/>
</clipPath>
</defs>
</svg>
