<svg width="164" height="41" viewBox="0 0 164 41" fill="none" xmlns="http://www.w3.org/2000/svg">
<circle cx="20.5" cy="20.5" r="20.5" fill="#191A23"/>
<path d="M11.25 24.701C10.5326 25.1152 10.2867 26.0326 10.701 26.75C11.1152 27.4674 12.0326 27.7133 12.75 27.299L11.25 24.701ZM30.7694 16.3882C30.9838 15.588 30.5089 14.7655 29.7087 14.5511L16.6687 11.0571C15.8685 10.8426 15.046 11.3175 14.8316 12.1177C14.6172 12.9179 15.0921 13.7404 15.8923 13.9548L27.4834 17.0607L24.3776 28.6518C24.1631 29.452 24.638 30.2745 25.4382 30.4889C26.2384 30.7033 27.0609 30.2284 27.2753 29.4282L30.7694 16.3882ZM12.75 27.299L30.0705 17.299L28.5705 14.701L11.25 24.701L12.75 27.299Z" fill="#B9FF66"/>
<path d="M57.6 27.5V13.5H59.28V25.98H66.36V27.5H57.6ZM72.9798 27.78C71.9932 27.78 71.1265 27.5733 70.3798 27.16C69.6332 26.7333 69.0532 26.14 68.6398 25.38C68.2265 24.62 68.0198 23.74 68.0198 22.74V22.5C68.0198 21.4867 68.2265 20.6 68.6398 19.84C69.0532 19.08 69.6265 18.4933 70.3598 18.08C71.0932 17.6533 71.9332 17.44 72.8798 17.44C73.7998 17.44 74.6132 17.64 75.3198 18.04C76.0265 18.4267 76.5798 18.9867 76.9798 19.72C77.3798 20.4533 77.5798 21.3133 77.5798 22.3V23.02H69.5998C69.6398 24.0733 69.9798 24.9 70.6198 25.5C71.2598 26.0867 72.0598 26.38 73.0198 26.38C73.8598 26.38 74.5065 26.1867 74.9598 25.8C75.4132 25.4133 75.7598 24.9533 75.9998 24.42L77.3598 25.08C77.1598 25.4933 76.8798 25.9067 76.5198 26.32C76.1732 26.7333 75.7132 27.08 75.1398 27.36C74.5798 27.64 73.8598 27.78 72.9798 27.78ZM69.6198 21.72H75.9798C75.9265 20.8133 75.6132 20.1067 75.0398 19.6C74.4798 19.0933 73.7598 18.84 72.8798 18.84C71.9865 18.84 71.2532 19.0933 70.6798 19.6C70.1065 20.1067 69.7532 20.8133 69.6198 21.72ZM83.3358 27.78C82.6558 27.78 82.0358 27.66 81.4758 27.42C80.9158 27.18 80.4758 26.8333 80.1558 26.38C79.8358 25.9267 79.6758 25.3733 79.6758 24.72C79.6758 24.0533 79.8358 23.5067 80.1558 23.08C80.4758 22.64 80.9158 22.3133 81.4758 22.1C82.0358 21.8733 82.6624 21.76 83.3558 21.76H86.6558V21.04C86.6558 20.3467 86.4491 19.8 86.0358 19.4C85.6358 19 85.0358 18.8 84.2358 18.8C83.4491 18.8 82.8358 18.9933 82.3958 19.38C81.9558 19.7533 81.6558 20.26 81.4958 20.9L80.0158 20.42C80.1758 19.8733 80.4291 19.38 80.7758 18.94C81.1224 18.4867 81.5824 18.1267 82.1558 17.86C82.7424 17.58 83.4424 17.44 84.2558 17.44C85.5091 17.44 86.4824 17.7667 87.1758 18.42C87.8691 19.06 88.2158 19.9667 88.2158 21.14V25.56C88.2158 25.96 88.4024 26.16 88.7758 26.16H89.6758V27.5H88.2958C87.8558 27.5 87.5024 27.38 87.2358 27.14C86.9691 26.8867 86.8358 26.5533 86.8358 26.14V26.04H86.5958C86.4491 26.2933 86.2491 26.56 85.9958 26.84C85.7558 27.1067 85.4224 27.3267 84.9958 27.5C84.5691 27.6867 84.0158 27.78 83.3358 27.78ZM83.5158 26.42C84.4491 26.42 85.2024 26.1467 85.7758 25.6C86.3624 25.04 86.6558 24.26 86.6558 23.26V23.04H83.4158C82.7891 23.04 82.2691 23.18 81.8558 23.46C81.4558 23.7267 81.2558 24.1333 81.2558 24.68C81.2558 25.2267 81.4624 25.6533 81.8758 25.96C82.3024 26.2667 82.8491 26.42 83.5158 26.42ZM91.8397 27.5V17.72H93.3797V18.92H93.6597C93.833 18.4933 94.0997 18.18 94.4597 17.98C94.8197 17.78 95.293 17.68 95.8797 17.68H97.0397V19.12H95.7797C95.073 19.12 94.4997 19.32 94.0597 19.72C93.633 20.1067 93.4197 20.7133 93.4197 21.54V27.5H91.8397ZM99.3788 27.5V17.72H100.919V19.38H101.199C101.412 18.9133 101.772 18.4933 102.279 18.12C102.799 17.7333 103.559 17.54 104.559 17.54C105.292 17.54 105.945 17.6933 106.519 18C107.105 18.3067 107.572 18.76 107.919 19.36C108.265 19.96 108.439 20.7 108.439 21.58V27.5H106.859V21.7C106.859 20.7267 106.612 20.02 106.119 19.58C105.639 19.14 104.985 18.92 104.159 18.92C103.212 18.92 102.439 19.2267 101.839 19.84C101.252 20.4533 100.959 21.3667 100.959 22.58V27.5H99.3788ZM116.781 27.5V17.72H118.321V18.94H118.601C118.788 18.5933 119.094 18.2733 119.521 17.98C119.948 17.6867 120.548 17.54 121.321 17.54C122.081 17.54 122.694 17.7067 123.161 18.04C123.641 18.3733 123.988 18.78 124.201 19.26H124.481C124.708 18.78 125.048 18.3733 125.501 18.04C125.968 17.7067 126.614 17.54 127.441 17.54C128.094 17.54 128.668 17.6733 129.161 17.94C129.654 18.2067 130.041 18.5933 130.321 19.1C130.614 19.5933 130.761 20.1867 130.761 20.88V27.5H129.181V21.02C129.181 20.3667 128.988 19.8533 128.601 19.48C128.228 19.0933 127.701 18.9 127.021 18.9C126.301 18.9 125.708 19.1333 125.241 19.6C124.788 20.0667 124.561 20.74 124.561 21.62V27.5H122.981V21.02C122.981 20.3667 122.788 19.8533 122.401 19.48C122.028 19.0933 121.501 18.9 120.821 18.9C120.101 18.9 119.508 19.1333 119.041 19.6C118.588 20.0667 118.361 20.74 118.361 21.62V27.5H116.781ZM138.508 27.78C137.521 27.78 136.648 27.5733 135.888 27.16C135.141 26.7467 134.555 26.1667 134.128 25.42C133.715 24.66 133.508 23.7667 133.508 22.74V22.48C133.508 21.4667 133.715 20.58 134.128 19.82C134.555 19.06 135.141 18.4733 135.888 18.06C136.648 17.6467 137.521 17.44 138.508 17.44C139.495 17.44 140.361 17.6467 141.108 18.06C141.868 18.4733 142.455 19.06 142.868 19.82C143.295 20.58 143.508 21.4667 143.508 22.48V22.74C143.508 23.7667 143.295 24.66 142.868 25.42C142.455 26.1667 141.868 26.7467 141.108 27.16C140.361 27.5733 139.495 27.78 138.508 27.78ZM138.508 26.36C139.548 26.36 140.375 26.0333 140.988 25.38C141.615 24.7133 141.928 23.82 141.928 22.7V22.52C141.928 21.4 141.615 20.5133 140.988 19.86C140.375 19.1933 139.548 18.86 138.508 18.86C137.481 18.86 136.655 19.1933 136.028 19.86C135.401 20.5133 135.088 21.4 135.088 22.52V22.7C135.088 23.82 135.401 24.7133 136.028 25.38C136.655 26.0333 137.481 26.36 138.508 26.36ZM146.351 27.5V17.72H147.891V18.92H148.171C148.345 18.4933 148.611 18.18 148.971 17.98C149.331 17.78 149.805 17.68 150.391 17.68H151.551V19.12H150.291C149.585 19.12 149.011 19.32 148.571 19.72C148.145 20.1067 147.931 20.7133 147.931 21.54V27.5H146.351ZM158.019 27.78C157.032 27.78 156.166 27.5733 155.419 27.16C154.672 26.7333 154.092 26.14 153.679 25.38C153.266 24.62 153.059 23.74 153.059 22.74V22.5C153.059 21.4867 153.266 20.6 153.679 19.84C154.092 19.08 154.666 18.4933 155.399 18.08C156.132 17.6533 156.972 17.44 157.919 17.44C158.839 17.44 159.652 17.64 160.359 18.04C161.066 18.4267 161.619 18.9867 162.019 19.72C162.419 20.4533 162.619 21.3133 162.619 22.3V23.02H154.639C154.679 24.0733 155.019 24.9 155.659 25.5C156.299 26.0867 157.099 26.38 158.059 26.38C158.899 26.38 159.546 26.1867 159.999 25.8C160.452 25.4133 160.799 24.9533 161.039 24.42L162.399 25.08C162.199 25.4933 161.919 25.9067 161.559 26.32C161.212 26.7333 160.752 27.08 160.179 27.36C159.619 27.64 158.899 27.78 158.019 27.78ZM154.659 21.72H161.019C160.966 20.8133 160.652 20.1067 160.079 19.6C159.519 19.0933 158.799 18.84 157.919 18.84C157.026 18.84 156.292 19.0933 155.719 19.6C155.146 20.1067 154.792 20.8133 154.659 21.72Z" fill="black"/>
</svg>
